<svg xmlns="http://www.w3.org/2000/svg" xmlns:xlink="http://www.w3.org/1999/xlink" version="1.1" x="0px" y="0px" viewBox="0 0 95 95" enable-background="new 0 0 95 95" xml:space="preserve"><path d="M84.143,16.081c-9.123-9.124-23.915-9.124-33.038,0L47.5,19.686l-3.604-3.604c-9.123-9.124-23.915-9.124-33.038,0  c-9.123,9.123-9.123,23.915,0,33.038L47.5,85.762l36.643-36.643C93.266,39.996,93.266,25.204,84.143,16.081z M67.5,50.983  c0,1.656-1.343,3-3,3H53.983V64.5c0,1.657-1.343,3-3,3h-6.966c-1.657,0-3-1.343-3-3V53.983H30.5c-1.656,0-3-1.344-3-3v-6.967  c0-1.656,1.344-3,3-3h10.518V30.5c0-1.657,1.343-3,3-3h6.966c1.657,0,3,1.343,3,3v10.517H64.5c1.657,0,3,1.344,3,3V50.983z"></path></svg>