<?xml version="1.0" encoding="utf-8"?>
<!-- Generator: Adobe Illustrator 22.1.0, SVG Export Plug-In . SVG Version: 6.00 Build 0)  -->
<svg version="1.1" id="Layer_1" xmlns="http://www.w3.org/2000/svg" xmlns:xlink="http://www.w3.org/1999/xlink" x="0px" y="0px"
	 viewBox="0 0 388.1 346.4" style="enable-background:new 0 0 388.1 346.4;" xml:space="preserve">
<style type="text/css">
	.st0{fill:#FFFFFF;}
	.st1{fill:#2C2C2C;}
</style>
<title>like_DL</title>
<desc>Created with Sketch.</desc>
<g id="like_DL">
	<g id="like" transform="translate(204.000000, 267.000000)">
		<path id="Path-3" class="st0" d="M-204-87.4l81.8-25.7v25.7l81-25.7c36.1-100.2,60.4-150.3,72.9-150.3s16.1,36.7,10.7,110.2
			c80.5-5.3,125.8,0,135.7,16c14.9,24-17,139.2-35.9,150.4c-12.6,7.4-40.1,12.5-82.4,15.1c-57.4-10-91.1-15.1-101-15.1
			s-33.4,5-70.6,15.1v23.9L-204,79.4V-87.4z"/>
		<path id="Fill-42" class="st1" d="M24.8-266.9c-1.1,0.1-2.2,0.3-3.3,0.6c-1.2,0.3-2.3,0.9-3.3,1.4c-1.2,0.6-2.4,1.5-3.5,2.3
			c-1.5,1.1-3,2.3-4.4,3.5c-1.8,1.6-3.3,3.6-4.7,5.5c-1.1,1.6-2,3.4-2.8,5.1c-0.9,1.8-1.7,3.6-2.3,5.5c-1,3.1-1.8,6.1-2.4,9.3
			c-0.6,3.8-0.9,7.6-1.1,11.4c-0.2,3.1-0.2,6.1-0.3,9.2c-0.1,2.9-0.3,5.7-0.7,8.6c-0.5,3.1-1.1,6.3-1.8,9.4c-0.7,3-1.7,5.9-2.8,8.7
			c-1.3,2.8-2.8,5.4-4.6,7.9c-2.2,2.7-4.5,5.4-6.7,8.2c-2.5,3.1-4.8,6.4-7,9.7c-4,6-7.7,12.3-10.9,18.8c-3.5,7.3-6.9,14.5-9.8,22.1
			c-2.4,6.6-4.6,13.3-6.6,20c-1.1,3.6-2.2,7.3-3.2,11c-1,3.9-1.8,7.9-2.5,11.8c-0.3,1.9-0.3,3.5,0.7,5.2c0.9,1.5,2.4,2.7,4.1,3.1
			c1.8,0.5,3.7,0.2,5.2-0.7c1.4-0.8,2.8-2.4,3.1-4.1c1.6-8.8,4.1-17.3,6.8-25.8c2.6-8,5.2-16,8.5-23.8c3-6.6,6.1-13.4,9.8-19.7
			c3.6-6.1,7.4-12.1,11.7-17.7c4.5-5.5,9.8-10.7,12.9-17.2c2.7-5.7,4.8-11.5,6-17.7c1.2-6.2,2.1-12.4,2.2-18.7
			c0.1-5.6,0.3-11.3,0.9-16.9c0.6-3.8,1.6-7.5,3-11.1c0.9-1.9,1.8-3.7,3-5.5c1.3-1.5,2.7-2.9,4.2-4.1c0.9-0.7,1.9-1.3,2.9-1.9
			c0.3-0.1,0.7-0.2,1-0.3c0.9,0,1.9,0,2.8,0.1c2.3,0.3,4.7,0.7,6.9,1.5c0.4,0.2,0.8,0.4,1.2,0.6c1.6,0.8,3.3,1.2,5.1,0.7
			c1.7-0.5,3.1-1.6,4-3c1.7-3,0.8-7.5-2.4-9.1c-2.1-1-4.2-2.1-6.5-2.6c-1.5-0.3-3-0.6-4.6-0.9c-2-0.4-3.9-0.7-5.9-0.7
			C26.2-267,25.5-267,24.8-266.9"/>
		<path id="Fill-44" class="st1" d="M48.6-163.2c0,0.2-0.1,0.5-0.1,0.7C48.5-162.7,48.6-162.9,48.6-163.2 M35.3-255
			c-1.6,0.9-2.7,2.4-3.2,4.2c-0.5,1.7-0.3,3.9,0.7,5.4c1.2,1.7,2.2,3.3,3.1,5.1c1.8,4.8,2.6,9.9,3.4,15c0.8,6.1,1.3,12.3,1.4,18.5
			c0.1,3.4,0.1,6.8,0,10.2c0,2.9-0.3,5.7-0.6,8.6c-0.9,5.1-2.1,10.1-3.3,15.1c-1.4,5.7-2.1,11.5-2.7,17.3
			c-0.5,5.2-0.9,10.4-1.3,15.6c-0.2,2.6-0.5,5.2-0.5,7.9c0,1.6,0,3.2,0.1,4.8c0.2,3.5,0.9,6.9,2,10.2c1.1,3.5,4.6,5.7,8.2,4.7
			c3.5-0.9,5.7-4.7,4.7-8.2c-0.4-1.5-0.8-3-1.1-4.5c-0.7-6.4,0.1-12.9,0.6-19.4c0.5-5.7,0.9-11.4,1.6-17c0.6-3.4,1.3-6.7,2.2-10
			c0.8-3.3,1.7-6.5,2.3-9.9c0.7-3.9,1.4-7.8,1.6-11.7c0.2-3.6,0.2-7.2,0.2-10.8c0-6.6-0.4-13.2-1.2-19.7c-0.5-3.8-0.9-7.7-1.7-11.5
			c-0.4-1.8-0.8-3.6-1.2-5.4c-1.1-4.4-3.1-8.4-5.7-12.1c-1.1-1.5-2.3-2.7-4.2-3.2c-0.6-0.2-1.2-0.2-1.9-0.2
			C37.6-256,36.4-255.6,35.3-255"/>
		<path id="Fill-46" class="st1" d="M117.5-164.5c-13.2,0.4-26.6,0.5-39.6,3c-3,0.6-6,1.2-8.9,1.9c-3,0.7-6,1.6-9,2.2
			c-5.7,1.3-11.4,2.6-17.2,3.5c-1.6,0.2-3.3,1.8-4,3.1c-0.9,1.6-1.2,3.5-0.7,5.2c0.5,1.7,1.6,3.2,3.1,4c0.5,0.2,1.1,0.5,1.6,0.7
			c1.2,0.3,2.4,0.3,3.6,0c3.3-0.5,6.6-1,9.8-1.6c3.3-0.7,6.7-1.3,10-2.1c3.6-0.8,7.2-1.8,10.9-2.5c3.2-0.6,6.5-1.3,9.8-1.8
			c7.8-0.9,15.5-1,23.3-1.2c3.9-0.1,7.8-0.2,11.7-0.3c4.8-0.1,9.6-0.2,14.4,0.3c5.6,0.9,11.1,2.6,16.5,4.5c2.5,1.1,4.8,2.3,7.1,3.8
			c2,1.8,3.7,3.7,5.4,5.8c1.4,2,2.8,4,3.9,6.2c0.3,0.8,0.5,1.6,0.7,2.4c0.1,1.4,0.1,2.7,0,4.1c-0.3,1.3-0.6,2.6-1.1,3.9
			c-0.8,1.6-1.7,3.1-2.7,4.5c-1.4,1.7-3,3.2-4.7,4.6c-2.6,1.9-5.4,3.4-8.4,4.7c-1.7,0.7-3.3,1.4-5.1,2c-2.7,1-5.3,1.8-8,2.6
			c-4.4,1.3-8.8,2.3-13.3,3c-3,0.3-5.9,0.4-8.9,0.1c-3.6-0.6-7-1.7-10.3-3.1c-2.3-1.1-4.5-2.2-6.6-3.7c-0.7-0.6-1.3-1.2-1.8-1.9
			c-0.4-0.5-0.7-1.1-1-1.7c-0.1-0.3-0.2-0.7-0.3-1c0-0.4,0-0.7,0-1.1c0.2-0.7,0.4-1.4,0.6-2.1c0.5-0.9,1-1.8,1.6-2.6
			c2.2-2.6,4.8-4.9,7.5-7.1c0.9-0.6,1.8-1.2,2.7-1.8c2.3-1.6,4.8-2.9,7.4-4c2.1-0.9,4.2-1.8,6.4-2.3c0.8,0,1.6,0,2.5,0.1
			c1,0.2,2.1,0.3,3.1,0.6c1.9,0.4,3.8,0.3,5.5-0.7c1.6-0.9,2.8-2.5,3.3-4.2c1-3.6-1.2-7.8-4.9-8.7c-3-0.7-6.2-1.3-9.3-1.2
			c-3.7,0.1-7,1.6-10.4,2.9c-3.7,1.5-7.1,3.2-10.5,5.4c-1.9,1.3-3.7,2.6-5.5,4.1c-5,4.2-9.8,8.9-12.2,15c-1.7,4.2-2,9-0.4,13.3
			c0.9,2.3,2.1,4.4,3.7,6.3c1.8,2.1,3.9,3.8,6.2,5.4c1.7,1.2,3.6,2,5.4,2.9c1.9,0.9,3.9,1.7,5.8,2.4c6.2,2.2,12.8,3.2,19.3,2.6
			c4.4-0.4,8.9-1.2,13.2-2.3c3.6-1,7.2-1.9,10.6-3.1c4.7-1.7,9.4-3.5,13.9-5.8c4.4-2.2,8.4-5.2,11.8-8.7c3.5-3.6,6.1-8.1,7.8-12.9
			c0.8-2.2,1.1-4.5,1.4-6.8c0.4-2.7-0.1-5.5-0.6-8.2c-0.4-2.2-1.5-4.3-2.4-6.2c-0.6-1.3-1.5-2.5-2.3-3.7c-3-4.4-6.4-8.8-10.7-12
			c-1.7-1.3-3.5-2.3-5.4-3.3c-1.9-1-3.9-1.9-5.9-2.6c-3.6-1.3-7.3-2.4-11.1-3.4c-6-1.6-12.2-2-18.4-2
			C124-164.7,120.7-164.6,117.5-164.5"/>
		<path id="Fill-48" class="st1" d="M157.7-97.8c-1.4,0.8-2.5,2.2-2.9,3.8c-0.4,1.5-0.3,3.6,0.6,4.9c0.5,0.7,1,1.4,1.5,2.2
			c0.8-0.2,1.6-0.4,2.5-0.6c2.5-0.5,5.1-0.7,7.5-1.5c0.8-0.3,1.7-0.5,2.5-0.7c-0.6-2.1-1.7-4-3.1-5.8c-1-1.4-2-2.4-3.8-2.9
			c-0.5-0.2-1.1-0.2-1.7-0.2C159.8-98.7,158.7-98.4,157.7-97.8"/>
		<path id="Fill-50" class="st1" d="M-29.7,9.1c-3.7,0-7.3,0.2-11,0.4c-3.4,0.2-6.8,0.7-10.2,1.1c-3.6,0.4-7.1,0.8-10.7,1.3
			c-3.3,0.5-6.7,0.9-9.9,1.6c-3.4,0.8-6.7,1.6-10.1,2.6c-3.3,0.9-6.6,1.9-9.9,2.7c-3.2,0.8-6.4,1.6-9.7,2.3
			c-0.8,0.2-1.6,0.5-2.4,0.8c-1.7,0.7-3,1.4-4,3c-0.9,1.5-1.1,3.4-0.7,5.1c0.5,1.7,1.6,3.1,3,4c1.4,0.8,3.6,1.3,5.1,0.7
			c3.2-1.3,6.8-1.9,10.1-2.8c3.4-0.9,6.8-1.8,10.1-2.8c3.7-1.1,7.5-2.1,11.2-2.9c3.3-0.7,6.6-1.2,9.9-1.7c6.3-0.8,12.6-1.7,19-2.1
			c3.6-0.2,7.1-0.3,10.7-0.4c3.6,0,7.1,0.1,10.7,0.2C-11.5,22.4-4.8,23,2,23.5c3.4,0.3,6.8,0.4,10.2,0.6c3.3,0.2,6.6,0.6,9.9,1
			c5.2,0.6,10.3,1,15.5,1.6c5.9,0.9,11.7,2,17.5,3c3.4,0.6,6.8,1,10.3,0.7c2.7-0.2,5.3-0.5,7.9-1.3c3.1-0.9,5.7-2.6,8.3-4.4
			c1.4-1,2.4-2,2.9-3.7c0.4-1.6,0.2-3.3-0.6-4.8c-0.8-1.4-2.2-2.4-3.7-2.9c-1.5-0.4-3.5-0.3-4.8,0.6c-1.5,1.1-3,2.1-4.7,2.9
			c-1,0.4-2.1,0.6-3.1,0.8c-1.3,0.1-2.7,0.2-4,0.3c-1.2,0-2.5-0.1-3.7-0.2c-5.9-1-11.7-2.3-17.5-3.2c-6.9-1-13.8-1.6-20.7-2.4
			c-3.6-0.4-7.2-0.8-10.9-1.1c-3.2-0.2-6.3-0.4-9.5-0.6c-7-0.6-13.9-1.1-20.9-1.3c-2.9-0.1-5.8-0.2-8.7-0.2
			C-28.9,9.1-29.3,9.1-29.7,9.1"/>
		<path id="Fill-52" class="st1" d="M-105.8-92.1c-0.1,0.1-0.2,0.2-0.3,0.2C-106-91.9-105.9-92-105.8-92.1 M-49.8-125.4
			c-3,1.6-6,3.1-9,4.6c-2.1,1.1-4.3,2-6.5,2.9c-7.6,3.1-15.2,6.2-23,8.7c-4.4,1.4-8.9,2.7-13.4,3.8c-1.9,0.5-3.9,0.9-5.8,1.3
			c-1.3,0.3-2.6,0.5-3.9,0.9c-2.7,0.8-4.9,2.8-6.1,5.3c-0.8,1.6-1.1,3.2-0.7,5c0.4,1.6,1.5,3,3,3.8c2.9,1.7,6.8,0.8,8.7-2.1
			c2.3-0.6,4.6-0.9,6.9-1.5c2.7-0.6,5.4-1.3,8.1-2.1c5.3-1.5,10.6-3.3,15.8-5.2c11.2-3.9,22-8.9,32.5-14.3c3.1-1.6,4-5.9,2.3-8.8
			c-1.2-2.1-3.3-3.1-5.5-3.1C-47.6-126.2-48.7-125.9-49.8-125.4"/>
		<path id="Fill-54" class="st1" d="M-126.6-122.7c-3.7,1-6,5-5,8.7c0.8,2.7,1.4,5.3,1.9,8.1c0.6,6.8,0.9,13.7,1.4,20.5
			c0.5,7.5,1,14.9,1.2,22.4c0.4,15,0.8,30.1,1,45.1c0.1,5.8,0.3,11.7,0.5,17.5c0.2,5.5,0.5,11,1.1,16.5c0.6,5.3,1.1,10.6,1.4,15.9
			c0.1,2.5,0.2,5,0.4,7.5c0.2,3.5,0.2,7.8,2.9,10.4c1.7,1.7,4.2,2.4,6.5,1.7c2.7-0.7,5.2-3.5,4.9-6.5c-0.1-0.9-0.2-1.8-0.4-2.6
			c-0.3-3-0.2-6.1-0.3-9.1c-0.1-3.6-0.3-7.1-0.6-10.7c-0.3-3.6-0.7-7.2-1-10.7c-0.3-3.6-0.4-7.2-0.6-10.8c-0.7-15-0.6-30.1-1-45.2
			c-0.3-11.4-0.5-22.8-1.2-34.1c-0.3-5.3-0.8-10.5-1.1-15.8c-0.2-2.8-0.3-5.5-0.5-8.3c-0.1-1.4-0.2-2.8-0.4-4.1
			c-0.3-3.9-1.3-7.7-2.3-11.5c-0.9-3.1-3.8-5.2-6.9-5.2C-125.4-123-126-122.9-126.6-122.7"/>
		<path id="Fill-56" class="st1" d="M-131.5-118.2c-1.4,0-2.7,0.1-4.1,0.1c-1.8,0.1-3.6,0.4-5.4,0.7c-2.7,0.5-5.4,1.4-8,2
			c-2.5,0.6-5.1,1-7.7,1.4c-2.4,0.4-4.8,0.8-7.3,1.2c-5.3,0.9-10.6,1.9-15.9,2.9c-2.7,0.5-5.4,1-8.1,1.6c-3.7,0.8-8,1.5-10.5,4.7
			c-0.4,0.5-0.7,0.9-1.1,1.4c-0.6,1.1-0.9,2.3-0.9,3.5c0,1.8,0.7,3.6,2,4.9c1.3,1.3,3.1,2,4.9,2c1.7,0,3.8-0.7,4.9-2
			c3.8-1.2,7.9-1.9,11.8-2.6c4.5-0.9,9-1.7,13.5-2.5c4.6-0.8,9.2-1.6,13.8-2.4c2.1-0.4,4.2-0.7,6.3-1.3c2.2-0.6,4.4-1.1,6.7-1.6
			c1.7-0.1,3.3-0.2,5-0.2c3.8-0.1,7-3.1,7-7c0-3.7-3.1-7-6.9-7C-131.4-118.2-131.4-118.2-131.5-118.2"/>
		<path id="Fill-58" class="st1" d="M-123.2,42.8c-3.5,1-7,2-10.5,3.1c-2.9,0.9-5.8,2-8.7,3.1c-6.2,2.2-12.3,4.5-18.5,6.6
			c-2.8,0.9-5.6,1.8-8.5,2.6c-2.9,0.9-5.9,1.4-8.8,2.1c-2.9,0.7-5.7,1.5-8.5,2.5c-1.6,0.6-3.2,1.3-4.8,2c-0.7,0.3-1.5,0.7-2.2,1.1
			c-0.5,0.1-1,0.4-1.5,0.6c-1.5,0.9-2.4,2.2-3,3.9c-1,2.8,0.6,6.1,3,7.5c1.4,0.8,3.7,1.3,5.3,0.6c0.8-0.3,1.6-0.7,2.4-1.1
			c1.3-0.7,2.6-1.4,3.9-2c4.8-1.8,9.7-2.8,14.7-3.8c2.5-0.5,4.9-1.3,7.3-2.1c2.8-0.9,5.6-1.8,8.5-2.8c5-1.7,10-3.6,15-5.4
			c2.8-1,5.6-2.1,8.4-3c3.3-1.1,6.6-2,9.9-3c3.5-1,5.6-4.6,4.6-8.1c-0.8-2.9-3.5-4.8-6.4-4.8C-122.1,42.6-122.7,42.7-123.2,42.8"/>
		<path id="Fill-60" class="st1" d="M154.5-95.8c-1.2,1.2-1.9,2.9-1.9,4.6c0,1.8,0.8,3.2,1.9,4.6c0.9,1,1.8,2.1,2.6,3.1
			c0.5,0.8,1,1.6,1.5,2.5c0.5,1.4,0.9,2.9,1.2,4.4c0,0.5,0,1,0,1.4c-0.1,0.4-0.3,0.8-0.4,1.3c-0.6,1.2-1.2,2.4-2,3.5
			c-0.8,0.9-1.6,1.7-2.5,2.4c-1.3,0.9-2.7,1.9-4.1,2.7c-1.5,0.8-3.1,1.6-4.6,2.3c-4,1.5-8.1,2.4-12.2,3.5c-2.1,0.6-4.1,1.3-6.1,1.9
			c-2,0.5-4,1-6,1.3c-3.8,0.3-7.5,0.3-11.2,0c-3.5-0.3-6.9-0.7-10.4-1.2c-2.1-0.3-4.2-0.8-6.2-1.5c-0.8-0.4-1.6-0.9-2.4-1.4
			c-0.7-0.7-1.4-1.4-2-2.1c-0.3-0.4-0.5-0.8-0.7-1.2c-0.2-0.6-0.3-1.2-0.4-1.8c-0.2-1.8-0.2-3.6,0-5.4c0.4-1.9,0.8-3.8,1.4-5.7
			c0.3-0.5,0.5-0.9,0.8-1.4c1.7-1.9,3.6-3.5,5.5-5.2c2.9-2.5,2.6-7.3,0-9.8c-1.3-1.3-3.1-2-4.9-2c-2,0-3.5,0.8-4.9,2
			c-2.2,1.8-4.3,3.6-6.1,5.8c-0.9,1-1.7,2.1-2.4,3.2c-0.7,1-1,2.3-1.5,3.4c-0.4,1-0.6,2.2-0.9,3.3c-0.5,2.2-0.8,4.3-1.1,6.5
			c-0.2,1.7-0.1,3.4,0,5.1c0.2,2.2,0.5,4.5,1.2,6.5c0.8,2.2,1.9,3.8,3.3,5.6c2.4,3,5.5,5.5,9,7c2.1,0.9,4.2,1.7,6.5,2.1
			c2.2,0.4,4.5,0.7,6.7,0.9c3.5,0.4,7,0.9,10.6,1c3.7,0.2,7.3,0.1,10.9-0.3c4.1-0.4,8.1-1.6,12-2.8c3.3-1.1,6.6-2,10-2.9
			c4.2-1.1,8.3-2.8,12.1-4.9c1.9-1.1,3.6-2.3,5.4-3.5c2-1.4,3.8-3,5.3-4.8c1.3-1.6,2.3-3.2,3.3-4.9c0.8-1.4,1.3-2.9,1.9-4.4
			c1-2.7,0.8-5.6,0.3-8.3c-0.4-2.4-1.2-4.7-2.2-6.9c-1.6-3.7-4.3-6.6-6.8-9.6c-1.1-1.3-3-1.9-4.6-1.9
			C157.4-97.7,155.7-97.1,154.5-95.8"/>
		<path id="Fill-62" class="st1" d="M90.9-23.1c0.1,0.1,0.1,0.3,0.2,0.4C91-22.8,90.9-22.9,90.9-23.1 M157-61.3
			c-1.6,0.4-3,1.5-3.9,3c-0.2,0.5-0.4,1-0.7,1.6c-0.3,1.2-0.3,2.3,0,3.5c0.1,0.9,0.3,1.8,0.4,2.8c0.3,3.2,0.4,6.3,0.1,9.5
			c-0.4,2.1-0.9,4.2-1.6,6.3c-0.4,0.9-0.9,1.7-1.4,2.5c-0.9,1-1.8,1.9-2.8,2.7c-5.7,4.2-12.3,7-18.8,9.7c-3.8,1.5-7.6,2.5-11.6,3.2
			c-4.7,0.5-9.4,0.4-14.1-0.1c-1.4-0.2-2.8-0.6-4.2-1.1c-1.7-0.8-3.4-1.8-4.9-2.9c-0.8-0.7-1.6-1.5-2.4-2.4
			c-0.2-0.2-0.3-0.5-0.5-0.8c0-0.2,0-0.5,0-0.7c0.2-0.9,0.4-1.8,0.7-2.7c1.1-3.7-1.3-7.8-5-8.8c-1.8-0.5-3.9-0.2-5.5,0.7
			c-1.7,1-2.6,2.5-3.3,4.3c-0.6,1.8-1,3.5-1.3,5.4c-0.2,2,0,4,0.5,6c0.5,2,1.7,3.7,3,5.3c0.8,1,1.7,2,2.6,2.9c1.8,1.7,4,3.1,6.2,4.4
			c2.8,1.6,5.9,2.9,9.1,3.5c4.1,0.9,8.5,0.9,12.7,1c4.3,0.1,8.6-0.6,12.8-1.5c3.8-0.8,7.6-2.2,11.1-3.8c3-1.3,6.1-2.7,9.1-4.1
			c3.1-1.5,6.1-3.1,8.9-4.9c1.7-1.1,3.2-2.4,4.8-3.7c1.8-1.5,3.3-3.5,4.6-5.4c1.2-1.8,2-3.9,2.7-5.9c0.6-1.7,0.9-3.6,1.2-5.4
			c0.6-3.2,0.8-6.4,0.6-9.6c-0.2-3.4-0.7-6.7-1.2-10c-0.2-1.6-1.7-3.1-3-3.9c-1-0.6-2.2-0.9-3.3-0.9C158.1-61.6,157.5-61.5,157-61.3
			"/>
		<path id="Fill-64" class="st1" d="M139.9-8.4c-3.6,1-5.5,4.7-4.7,8.3c0.1,0.6,0.3,1.2,0.4,1.8c0,0.3,0,0.5,0,0.8
			c0,0.1,0,0.2-0.1,0.3c-0.3,0.6-0.7,1.1-1,1.6c-2,2.4-4.2,4.6-6.6,6.5c-1.6,1.1-3.3,2.1-5,2.9c-3.6,1.3-7.5,2.1-11.3,2.7
			c-2.3,0.2-4.6,0.1-6.9-0.1c-2.3-0.4-4.5-0.9-6.7-1.6c-1-0.5-1.9-1.1-2.8-1.7c-1.4-1.2-2.6-2.5-3.7-3.9c-0.9-1.2-1.6-2.5-2.3-3.8
			c-0.3-0.9-0.6-1.8-0.9-2.7c-1-3.7-4.9-5.9-8.7-4.9c-3.8,1-5.8,4.9-4.9,8.7c0.4,1.8,1.1,3.6,1.9,5.3c0.5,1.2,1.1,2.3,1.8,3.4
			c1.7,2.5,3.6,4.9,5.7,7c3.7,3.5,8.2,6,13.3,7.1c3.8,0.8,7.7,1.4,11.5,1.4c2.9,0,5.9-0.6,8.8-1.2c1.3-0.3,2.6-0.6,3.9-0.9
			c2.7-0.7,5.3-1.6,7.9-2.8c2.7-1.2,5.1-3,7.4-4.8c2.2-1.7,4.1-3.6,6-5.7c1-1.1,1.9-2.4,2.9-3.6c1.2-1.6,1.9-3.3,2.6-5.1
			c0.1-0.5,0.2-1,0.3-1.5c0.2-1.1,0.3-2.1,0.3-3.3c0-1.8-0.5-3.6-0.9-5.4c-0.7-3-3.6-4.9-6.5-4.9C141-8.7,140.4-8.6,139.9-8.4"/>
	</g>
</g>
</svg>
