<?xml version="1.0" encoding="utf-8"?>
<!-- Generator: Adobe Illustrator 22.1.0, SVG Export Plug-In . SVG Version: 6.00 Build 0)  -->
<svg version="1.1" id="Layer_1" xmlns="http://www.w3.org/2000/svg" xmlns:xlink="http://www.w3.org/1999/xlink" x="0px" y="0px"
	 viewBox="0 0 450 366" style="enable-background:new 0 0 450 366;" xml:space="preserve">
<style type="text/css">
	.st0{fill:#FFFFFF;}
	.st1{fill:#2C2C2C;}
</style>
<title>money_stack_DL</title>
<desc>Created with Sketch.</desc>
<g id="money_stack_DL">
	<g id="money_stack" transform="translate(176.000000, 233.000000)">
		<polygon id="Path-89" class="st0" points="117.9,-229 257,-166 268,-84.5 -16.9,133 -141.4,50.4 -165,-64.1 		"/>
		<path id="Fill-1" class="st1" d="M-32.3,6.1c0.1,0,0.2,0,0.3,0C-32.2,6.1-32.3,6.1-32.3,6.1 M-31,6.1c-0.1,0-0.1,0-0.2,0
			C-31.1,6.1-31.1,6.1-31,6.1 M-41.2,0.9c-2.2-1.5-4.4-3.1-6.6-4.6c-4.7-3.1-9.4-6.3-14-9.6c-4.7-3.4-9.3-6.8-14.1-9.9
			c-4.9-3.2-9.9-6.3-14.9-9.3c-5.2-3-10.4-6-15.6-8.9c-5.2-2.9-10.4-5.7-15.7-8.4c-10.1-5.1-20.7-9.2-31.2-13.4
			c5.2-1.3,10.3-3.2,15.3-5.1c5.8-2.3,11.4-5,16.9-7.8c4.9-2.5,9.6-5.4,14.5-7.9c1.1-0.6,2.2-1.1,3.3-1.7c10.1-4.7,20.3-9,30.4-13.7
			c5.6-2.6,11.2-5.3,16.6-8.3c5.2-2.9,10.4-5.8,15.7-8.6c2.4-1.3,4.9-2.5,7.3-3.7c2.8-1.4,5.5-2.8,8.3-4.2c2.3-1.2,4.5-2.5,6.7-3.9
			c2.7-1.7,5.4-3.4,8-5.1c4.8-3.1,9.4-6.6,14.1-9.9c1.1-0.8,2.1-1.6,3.2-2.3c1.3-0.9,2.6-1.8,4-2.6c2.7-1.6,5.4-3.1,8.2-4.6
			c4.9-2.7,9.6-5.6,14.3-8.6c5-3.2,10-6.3,15-9.5c9.6-6,18.9-12.5,28.4-18.8c7-4.7,13.9-9.6,20.7-14.5c3.6-2.6,7.1-5.3,10.2-8.4
			c2.7-2.7,5.4-5.4,8.3-8c1.5,0.9,2.9,2,4.3,3c2.3,1.6,4.6,3.2,6.9,4.7c4.5,3,8.9,6,13.4,9c2.3,1.5,4.6,2.9,6.8,4.5
			c2.4,1.7,4.7,3.4,7.1,5.1c4.7,3.4,9.5,6.4,14.4,9.4c5,3,10,5.8,15,8.6c5.3,3,10.8,5.4,16.3,7.8c5.5,2.4,10.9,5,16.4,7.1
			c0.1,0.1,0.2,0.1,0.4,0.1c-0.6,0.5-1.2,1.1-1.9,1.6c-2.8,2.4-5.4,4.9-8,7.5c-2.9,2.9-5.8,5.8-8.9,8.5c-1,0.8-2,1.6-3.1,2.3
			c-0.4,1.2-0.9,2.3-1.8,3.3c-1.6,1.8-3.8,2.8-6.1,3.3c-1.1,0.2-2.1,0.3-3.2,0.3c-1.4,0.7-2.7,1.4-4.1,2.1
			c-5.2,2.6-10.4,5.1-15.5,7.8c-1.3,0.7-2.6,1.5-3.8,2.2c-1,0.6-2,1.1-3,1.8c-2.4,1.6-4.9,3.1-7.2,4.8c-2.6,2-5.3,4.1-7.8,6.3
			c-2.2,1.9-4.4,3.8-6.6,5.8c-1.8,1.6-3.7,3.2-5.5,4.9c-1.7,1.4-3.4,2.8-5.1,4.1c-1.8,1.5-3.9,2.8-5.8,4.1c-3.7,2.6-7.5,5-11,7.7
			c-7.9,6-15.4,12.5-23,19c-4.1,3.4-8.2,6.6-12.4,9.8c-4.4,3.4-8.9,6.8-13.3,10.2c-4.7,3.5-9.3,6.9-14,10.3
			c-4.9,3.5-9.7,6.9-14.9,9.9c-2.4,1.4-5,2.7-7.5,3.9C15-15.6,6.2-12-2.6-8.3C-7.5-6.2-12.4-4-17.1-1.6c-4,2.1-7.9,4.6-11.9,6.6
			c-0.8,0.4-1.7,0.7-2.5,1c-1.4-0.5-2.8-1.3-4.2-2c0.4,0.2,0.8,0.4,1.2,0.6C-36.8,3.5-39.1,2.4-41.2,0.9 M115.1-232.8
			c-1.3,0.4-2.5,1.1-3.5,1.9c-1.7,1.4-3.4,2.9-5,4.4c-2.7,2.5-5.2,5.1-7.9,7.5c-4.1,3.3-8.5,6.3-12.8,9.3c-4.6,3.3-9.3,6.5-14,9.6
			c-4.9,3.2-9.7,6.6-14.6,9.9c-4.9,3.3-9.9,6.5-15,9.6c-4.9,3-9.7,6-14.5,9.1c-4.8,3.1-9.6,6-14.6,8.7c-2.4,1.3-4.9,2.6-7.3,4.2
			c-2.8,1.8-5.5,3.7-8.2,5.6c-4.7,3.4-9.5,6.8-14.4,10c-2.2,1.4-4.4,2.8-6.7,4.2c-2,1.3-4.1,2.5-6.2,3.6c-4.8,2.5-9.7,4.9-14.6,7.3
			c-4.7,2.4-9.3,4.9-13.9,7.5c-4.3,2.4-8.6,4.7-13,6.9c-9.8,4.5-19.6,8.9-29.4,13.2c-5.3,2.3-10.4,4.9-15.5,7.7
			c-2.3,1.2-4.5,2.5-6.7,3.8c-2.4,1.3-4.8,2.5-7.2,3.7c-4.9,2.3-9.8,4.4-14.9,6.3c-2.7,1-5.5,2-8.3,2.7c-2.8,0.7-5.7,1.4-8.5,2
			c-2.5,0.5-5,1.1-7.5,1.6c-0.8,0.2-1.7,0.3-2.5,0.6c-2,0.9-3.7,2.4-4.3,4.6c-0.5,1.9-0.5,3.9,0.4,5.7c1.2,2.5,3.3,4.4,5.8,5.6
			c1.8,0.9,3.5,1.6,5.3,2.4c2.9,1.3,5.9,2.5,8.8,3.8c4.4,1.9,8.9,3.7,13.3,5.6c4.3,1.8,8.5,3.8,12.6,5.8c4.9,2.5,9.7,5.1,14.5,7.8
			c5.1,2.9,10.2,5.8,15.3,8.8c5.3,3.1,10.5,6.3,15.6,9.6c4.8,3.1,9.5,6.5,14.1,9.8c4.2,3,8.4,5.9,12.8,8.6c2.2,1.4,4.4,2.8,6.6,4.2
			c2,1.3,4.1,2.6,6.2,3.7c2.4,1.2,4.8,2.3,7.2,3.5c0.4,0.2,0.8,0.4,1.3,0.6c1.7,0.7,3.5,0.7,5.3,0.3c1.6-0.4,3.1-1,4.6-1.7
			c5-2.3,9.7-5.2,14.5-7.7C-1.1,4.6,9.3,0.6,19.6-3.7c2.8-1.2,5.6-2.5,8.4-3.8c2.4-1.2,4.9-2.3,7.2-3.7c2.6-1.5,5.1-3,7.6-4.6
			c2.5-1.6,4.9-3.4,7.4-5.1c9.1-6.5,18-13.2,26.9-20c4.5-3.5,9.1-6.9,13.4-10.6c4.4-3.7,8.7-7.4,13.1-11.1c3.8-3.1,7.7-6.2,11.6-9.2
			c3.9-3,8-5.5,12-8.3c4.3-3,8.4-6.2,12.3-9.7c3.8-3.4,7.6-6.7,11.5-10c1-0.8,2-1.5,2.9-2.3c1-0.8,2-1.7,3.1-2.4
			c2.4-1.5,4.7-3.2,7.1-4.6c2.6-1.5,5.2-3.1,7.9-4.5c2.7-1.4,5.5-2.8,8.3-4.2c4.9-2.4,9.8-4.8,14.4-7.7c4.8-3,9.3-6.3,13.4-10.2
			c2.3-2.2,4.6-4.4,6.8-6.6c2.7-2.7,5.5-5.3,8.3-7.8c0.4-0.4,0.8-0.7,1.3-1.1c1.7-1.4,3.7-2.6,5.7-3.6c1.5-0.7,2.9-1.2,4.4-1.8
			c0.3,0,0.6,0.1,0.8,0.1c1.3,0.2,2.8-0.8,3.6-1.6c1.2-0.4,2.3-0.7,3.5-1.1c2.6-0.8,4.3-3.6,4.5-6.2c0.2-2.9-1.7-6.5-5-6.2
			c-3.3,0.3-6.5,1.2-9.6,2.3c-2.2-0.5-4.4-1.2-6.5-1.8c-3.6-1.1-7.1-2.5-10.6-4c-3.6-1.6-7.2-3.3-10.8-4.9c-3.1-1.4-6.2-2.8-9.2-4.2
			c-5-2.7-10-5.5-14.9-8.3c-4.8-2.8-9.7-5.5-14.2-8.7c-4.8-3.3-9.4-6.8-14.3-10c-4.6-3-9.2-6-13.8-9c-3-2-6.1-4-9.1-6
			c-1.4-0.9-2.7-1.9-4.1-2.8c-1.7-1.2-3.4-2.2-5.2-3c-0.9-0.4-1.9-0.7-2.8-0.7C116.2-233,115.6-232.9,115.1-232.8"/>
		<path id="Fill-3" class="st1" d="M247.7-150.2c-2.8,1.7-5.6,3.2-8.2,5.3c-2.9,2.3-5.7,4.8-8.4,7.4c-2.6,2.6-5.2,5.2-7.8,7.8
			c-2.3,2.4-4.7,4.6-7.2,6.8c-0.9,0.7-1.8,1.4-2.7,2.2c-1.2,1-2.5,1.8-3.7,2.7c-2.1,1.5-4.2,2.8-6.4,4.1c-5.3,3.1-10.7,6.3-16,9.5
			c-4.9,3-10,5.7-15,8.4c-4.8,2.7-9.5,5.5-14.3,8.2c-5.1,2.9-10,6-14.9,9.3c-4.7,3.1-9,6.9-13.4,10.4c-4.5,3.6-9.1,7.1-13.6,10.6
			c-4.7,3.6-9.3,7.4-13.9,11.1c-4.6,3.7-9.4,7.1-14.4,10.3c-2.2,1.4-4.4,2.7-6.6,4.1c-2.6,1.6-5.1,3.2-7.6,4.9
			c-2.5,1.7-4.9,3.7-7.3,5.5c-2.1,1.6-4.2,3.3-6.3,5C55.5-13,50.7-9.4,45.9-5.9c-7.2,5.2-14.9,9.8-22.8,14c0,0,0.1,0,0.1-0.1
			c-1.8,0.8-3.5,1.7-5.3,2.4c-2.3,1-4.6,1.9-7,2.8c-5.1,2-10.1,4.3-15.1,6.7c-4.3,2.1-8.5,4.4-12.7,6.7c-1,0.6-2,1.2-3,1.8
			c-1,0.7-2,1.4-2.9,2.2c-2,1.6-4,3.4-5.9,5c-0.7,0.6-1.5,1.2-2.3,1.6c-0.1,0-0.1,0.1-0.2,0.1c-0.1,0-0.1,0-0.2,0
			c-1.1-0.3-2.2-0.7-3.2-1.1c-9.5-5-17.2-12.7-26.1-18.7c-5-3.4-10-6.6-15.2-9.7c-5-2.9-10-5.8-15-8.7c-10.1-5.8-20-11.9-30.2-17.5
			c-5.3-3-10.7-6-16.1-8.8c-2.8-1.5-5.5-2.9-8.4-4.2c-2.6-1.2-5.3-2.2-7.9-3.3c-1.1-0.5-2.2-1-3.3-1.5c-1.3-0.6-3.1,0-4.2,0.7
			c-1.4,0.9-2.3,2.3-2.8,3.8c-0.5,1.5-0.5,3.3,0.2,4.8c0.2,0.4,0.5,0.8,0.7,1.3c0.6,0.8,1.4,1.3,2.3,1.6c1.9,0.9,3.8,1.8,5.8,2.6
			c1.7,0.7,3.5,1.5,5.2,2.3C-128.7-8.5-109,4-88.8,15.7c9.8,5.7,19.5,11.6,28.5,18.6c4.6,3.5,9.1,7.2,14,10.3c2.5,1.6,5.2,3,8,4.1
			c1,0.4,2.1,0.7,3.2,1c0.8,0.1,1.5,0.2,2.3,0.3c0.8,0.1,1.7-0.1,2.5-0.3c1.5-0.3,2.8-1,4-1.7c0.6-0.3,1.2-0.8,1.7-1.2
			c1-0.8,2-1.7,3-2.5c1.2-1,2.3-2,3.5-3c0.7-0.6,1.4-1.1,2.1-1.7c0.9-0.7,1.9-1.2,2.9-1.8c1.9-1.1,3.8-2.1,5.7-3.1
			c3.4-1.8,6.9-3.6,10.4-5.3c2.7-1.2,5.4-2.3,8.2-3.4c2.4-1,4.9-1.8,7.3-2.8c3.1-1.3,6.3-2.6,9.3-4.2c2.7-1.4,5.3-2.9,7.9-4.4
			c9.9-5.7,19-12.5,28-19.5c4.8-3.7,9.5-7.5,14.4-11.1c4.5-3.3,9.4-6.1,14.2-9.1c10.1-6.2,19-14.1,28.2-21.4
			c4.2-3.4,8.6-6.7,12.8-10.1c4.7-3.8,9.4-7.6,14.3-11.2c4.4-3.2,9.1-6,13.9-8.8c5.1-2.9,10.2-5.9,15.3-8.8c5-2.9,10.1-5.6,15-8.4
			c5-2.9,10-5.9,15-8.9c1-0.6,1.9-1.1,2.9-1.7c1.3-0.8,2.7-1.6,4-2.5c1.3-1,2.7-1.9,4-2.9c1.2-0.9,2.3-1.9,3.4-2.8
			c4.6-3.8,8.8-8.1,13-12.4c3-3,6-6,9.2-8.8c1.3-1.1,2.6-2.1,4-3c1.6-1.1,3.2-2.1,4.8-3.2c2.5-1.8,3.7-5.2,2.5-8.1
			c-0.5-1.3-1.6-2.3-2.9-2.7c-0.4-0.1-0.8-0.2-1.2-0.2C249.4-151,248.5-150.7,247.7-150.2"/>
		<path id="Fill-5" class="st1" d="M260.2-133.6c-0.9,1.5-1.3,3.4-1,5.1c0,0.2,0.1,0.3,0.1,0.5c-0.2,0.1-0.4,0.2-0.5,0.3
			c-2.3,1.3-4.6,2.7-6.9,4c-4.9,2.8-9.8,5.5-14.8,8.2c-4.9,2.7-9.6,5.7-14.1,9c-4.3,3.2-8.7,6.4-12.6,10.2c-2.5,2.4-4.8,5-7.1,7.5
			c-2.6,2.8-5.4,5.5-8.2,8.1c0.4-0.3,0.7-0.6,1.1-0.9c-2.1,1.7-4.1,3.5-6.4,5.1c-2.6,1.7-5.2,3.4-7.9,5c-2.3,1.4-4.7,2.8-7,4.2
			c-2.4,1.5-4.8,3.1-7.2,4.7c-2.4,1.6-4.7,3.5-7,5.2c-2.4,1.9-4.8,3.7-7.2,5.6c-4.2,3.3-8.2,6.8-12.4,10.1
			c-9.5,7.4-19.2,14.5-29.2,21.3c-4.6,3.2-9.1,6.7-13.6,10.1c-4.9,3.8-9.8,7.5-14.6,11.3c-4.4,3.5-8.6,7.2-13,10.7
			c-4.5,3.6-9.2,6.9-14,10.1c-2.3,1.5-4.6,3-7,4.4c-2.6,1.5-5.2,2.9-7.8,4.4c-5,2.9-9.9,5.9-14.8,9c-4.9,3.2-9.7,6.3-14.5,9.5
			c-2.6,1.7-5.2,3.5-7.8,5.2c-2.3,1.6-4.8,2.9-7.2,4.3c-1.2,0.7-2.4,1.4-3.5,2.1c-1.2,0.8-2.5,1.5-3.7,2.4c-1.5,1.2-3.1,2.3-4.6,3.6
			c-1,0.9-2.2,1.8-3.2,2.8c-1,1-2.1,2-3,3.1c-1.2,1.5-2.4,2.9-3.5,4.5c-0.7,1-1.5,2.1-2.2,3.1c-0.1,0.2-0.2,0.3-0.3,0.5
			c-0.6-0.4-1.2-0.8-1.8-1.1c-2.3-1.4-4.6-2.7-6.8-4.3c-4.6-3.3-8.8-7.1-13.2-10.6c-9.4-7.5-19.2-14.4-29.2-21.1
			c-4.5-3.1-9.2-5.9-13.8-8.9c-5.1-3.4-10.1-6.9-15.1-10.6c-4.4-3.2-8.8-6.4-13.2-9.6c-4.8-3.5-9.6-7.1-14.6-10.4
			c-1.8-1.2-3.6-2.3-5.4-3.4c-2.8-1.8-6-0.4-7.6,2.3c-1.5,2.5-1.5,6.8,1.3,8.6c2.8,1.7,5.5,3.5,8.2,5.4c2.3,1.6,4.6,3.3,6.8,5
			c4.5,3.4,9.1,6.7,13.6,10c4.9,3.6,9.8,7.2,14.7,10.7c4.4,3.1,9.1,5.9,13.7,8.9c9.9,6.4,19.7,13.1,29,20.3
			c4.6,3.5,9.1,7.2,13.7,10.8c4.3,3.4,9.2,5.9,13.8,8.8c1.9,1.1,3.7,2.3,5.7,3.2c1.1,0.5,2.4,0.3,3.5,0c1.6-0.4,2.8-1.8,3.7-3.1
			c0.6-0.9,0.9-1.9,1.3-2.9c0.1-0.2,0.2-0.4,0.4-0.6c1.1-1.3,2.2-2.6,3.3-3.9c1.5-1.7,3.1-3.3,4.8-4.8c1.7-1.4,3.4-2.8,5.3-4
			c2.4-1.5,4.8-2.9,7.3-4.3c2.5-1.4,5-2.7,7.3-4.3c2.7-1.8,5.5-3.6,8.2-5.3c4.8-3.1,9.6-6.2,14.4-9.2c4.8-3.1,9.6-6,14.6-8.8
			c2.6-1.5,5.3-3,7.9-4.5c2.6-1.5,5.1-3.2,7.5-4.8c4.8-3.2,9.4-6.6,13.9-10.2c4.3-3.4,8.4-7.1,12.8-10.5c4.9-3.9,9.9-7.7,14.9-11.5
			c4.5-3.5,9-6.9,13.6-10.1c4.9-3.4,9.7-6.8,14.5-10.4c4.8-3.6,9.5-7.2,14.2-10.9c4.2-3.4,8.3-7,12.6-10.3c2.5-2,5-3.9,7.5-5.8
			c2.1-1.6,4.2-3.2,6.4-4.7c2.6-1.8,5.2-3.5,7.9-5.2c2.2-1.4,4.5-2.6,6.7-4c5.4-3.3,10.6-6.9,15.3-11.2c2.1-2,4.3-3.9,6.2-6
			c2.1-2.3,4.3-4.6,6.4-6.9c1.6-1.7,3.3-3.4,5.1-4.9c4.6-3.8,9.5-7.2,14.5-10.5c2.3-1.5,4.7-2.8,7.1-4.1c2.4-1.3,4.8-2.6,7.2-3.9
			c4.5-2.5,9-5,13.3-7.6c2-1.2,4-2.5,5.8-3.8c2.7-2,5.1-4.4,5.4-7.9c0.2-2.4-0.7-4.6-2.1-6.4c-0.5-0.7-1.3-1.4-1.9-1.9
			c-0.6-0.5-1.2-1-1.8-1.4c-0.8-0.6-1.7-0.9-2.6-0.9C263.4-137,261.3-135.5,260.2-133.6"/>
		<path id="Fill-7" class="st1" d="M63-144.5c1.3,0,2.6,0,3.9,0c3.1,0,6.2,0.2,9.2,0.5c1.9,0.3,3.7,0.8,5.5,1.6
			c1.2,0.7,2.3,1.4,3.3,2.3c1.8,1.8,3.3,3.9,4.7,6.1c1.6,2.9,2.8,5.9,3.8,9.1c1.1,4.1,1.6,8.3,1.8,12.5c0.1,3,0,6-0.4,9
			c-0.2,0.9-0.4,1.8-0.7,2.7c-0.3,0.6-0.7,1.2-1,1.7c-0.7,0.8-1.4,1.6-2.2,2.3c-1.2,1-2.5,1.8-3.9,2.5c-3.9,1.7-8.2,2.6-12.4,3.6
			c-3.4,0.8-6.8,1.7-10.2,2.4c-2.9,0.4-5.9,0.6-8.8,0.7c-1.6,0-3.3,0-4.9,0c-2.8,0-5.6-0.1-8.4-0.4c-1.3-0.2-2.5-0.5-3.7-1
			c-0.7-0.4-1.4-0.9-2-1.5c-0.9-0.9-1.6-1.9-2.3-3c-2.3-4.1-3.9-8.5-5.3-12.9c-0.7-2.8-1.3-5.5-1.8-8.3c0-0.1,0-0.2-0.1-0.3
			c0.3-0.2,0.6-0.5,0.8-0.7c1.1-1.1,1.5-2.5,1.7-4c0.1-0.6,0.2-1.2,0.2-1.7c0.2-0.9,0.5-1.8,0.8-2.7c0.6-1.3,1.4-2.5,2.2-3.7
			c2.8-3.6,6.1-6.7,9.5-9.7c2-1.7,4.1-3.2,6.4-4.4c2.2-1,4.6-1.6,7-2C58.1-144.2,60.6-144.5,63-144.5 M56.9-155.4
			c-3.1,0.4-6.2,1.1-9.1,2.2c-4.7,1.9-8.8,5.1-12.5,8.5c-2.8,2.6-5.5,5.2-8,8.2c-1.9,2.3-3.6,4.8-4.8,7.6c-0.4,1-0.8,1.9-1.2,2.9
			c-0.4,0-0.9,0.1-1.3,0.2c-2.9,0.9-4.3,4.2-4,7.1c0.4,3,0.9,5.9,1.5,8.8c0.4,2.1,0.9,4.3,1.4,6.4c1.1,4.2,2.5,8.2,4.2,12.1
			c0.7,1.6,1.6,3.2,2.4,4.7c1,1.6,1.9,3.2,3.2,4.5c1.3,1.3,2.7,2.5,4.3,3.4c1.9,1.1,4,1.6,6.1,2C43-76,46.9-76,50.7-76
			c2.3,0,4.6,0,6.9-0.1c4.3-0.2,8.5-1,12.6-2c4.4-1.1,8.8-2,13.2-3.3c3.6-1,7-2.4,10.1-4.5c3.4-2.3,6.2-5.4,8.3-8.9
			c1.1-1.8,1.7-3.8,2.1-5.9c0.5-2.2,0.8-4.4,0.9-6.6c0.3-4.5,0-9-0.5-13.4c-0.6-5.9-2.3-11.7-4.8-17c-1.3-2.7-2.9-5.2-4.6-7.6
			c-1.9-2.6-4.4-5-7.2-6.8c-4.9-3.1-10.9-3.5-16.5-3.8c-2.4-0.1-4.8-0.1-7.2-0.2h-0.1C61.6-156,59.2-155.7,56.9-155.4"/>
		<path id="Fill-11" class="st1" d="M65-94.3c-0.2,0.1-0.3,0.3-0.5,0.4C64.7-94,64.8-94.1,65-94.3z M56.7-99.1
			c-0.1,0.1-0.2,0.2-0.2,0.3C56.5-98.9,56.6-99,56.7-99.1L56.7-99.1z M67.2-122.7c0.2,0.1,0.4,0.1,0.5,0.2
			C67.5-122.5,67.4-122.6,67.2-122.7z M66.3-122.9c0.1,0,0.2,0,0.3,0C66.5-122.8,66.4-122.9,66.3-122.9z M66.3-123.4
			c0.2,0.2,0.4,0.4,0.6,0.6C66.7-123,66.5-123.2,66.3-123.4z M67-134c-1.8,0.1-3.5,0.7-5.2,1.2c-2.1,0.6-4.1,1.3-6,2.2
			c-2.5,1.2-4.7,2.8-6.6,4.7c-0.9,0.9-1.6,1.9-2.4,2.8c-1,1.3-1.7,2.5-1.8,4.1c-0.1,1.4,0.3,2.8,1.1,4c0.8,1,2.1,1.7,3.5,1.6
			c1.3,0,2.8-0.7,3.6-1.7c1.1-1.4,2.1-2.7,3.4-3.8c0.8-0.6,1.7-1.1,2.6-1.6c2.3-1,4.8-1.6,7.2-2.3c0.2,0,0.4,0,0.6,0c0,0,0,0,0.1,0
			c0.1,0.3,0.3,0.6,0.4,0.9c0.1,0.4,0.1,0.8,0.2,1.2c0,1-0.1,2.1-0.2,3.1c-0.1,0.4-0.2,0.9-0.3,1.3c-0.6,0.4-1.2,0.8-1.8,1.4
			c-0.9,1-1.9,2.2-2.2,3.5c-0.2,0.8-0.4,1.5-0.5,2.3c0,1,0,1.9,0.2,2.9c0.1,0.4,0.2,0.7,0.3,1.1c-0.8,0.3-1.5,0.7-2.2,1.1
			c-0.2,0.2-0.4,0.3-0.6,0.5c-0.6,0.4-1.1,0.8-1.4,1.4c-0.4,0.5-0.8,1.1-1.2,1.6c0,0,0,0,0,0c-0.1,0-0.2,0.1-0.4,0.1
			c-1.4,0.4-2.5,1.4-3.2,2.6c-1.3,2.3-1.4,6.1,1.2,7.7c0.5,0.3,1,0.6,1.6,0.8c0.9,0.3,2.2,0.3,3.1,0c1.8-0.6,3-2,4.1-3.4
			c0.5-0.7,0.9-1.3,1.4-2c1.8-0.7,3.8-1.2,5.7-1.6c1.7-0.4,3.5-0.7,5.2-1c2.5-0.4,5.3-0.8,7.3-2.4c0.8-0.5,1.4-1.2,1.9-2
			c0.4-0.6,0.7-1.2,1-1.9c0.2-0.6,0.3-1.2,0.3-1.9c0-0.9-0.1-2.4-0.6-3.2c-0.5-0.9-1-1.7-1.6-2.4c-1-1.1-2.2-2.1-3.4-2.9
			c-1.1-0.8-2.3-1.4-3.5-2c-0.3-0.1-0.6-0.3-0.8-0.4c0.3-1.7,0.5-3.4,0.4-5.1c0-3-0.6-6.2-2.4-8.7c-1-1.4-2.3-2.5-4-3.2
			c-1-0.5-2.1-0.6-3.3-0.6C67.6-134,67.3-134,67-134z"/>
		<path id="Fill-17" class="st1" d="M117.2-184.5c-0.1-0.2-0.1-0.3-0.2-0.5C117.1-184.8,117.1-184.7,117.2-184.5"/>
		<path id="Fill-19" class="st1" d="M-135,26.2c-1.3,0.4-2.4,1.4-3.1,2.6c-0.8,1.3-1.1,2.9-0.8,4.4c0.2,1.4,0.9,2.4,2,3.3
			c4.5,3.7,8.6,7.8,12.9,11.7c4.4,4,8.9,7.9,13.2,11.9c8.3,7.9,16.6,15.7,25,23.5c4.2,3.9,8.5,7.9,13.1,11.5
			c4.7,3.7,9.6,7.2,14.4,10.7c2.8,2,5.5,4,8.2,6c2.5,1.9,4.9,3.9,7.4,5.8c2.7,2.1,5.4,4.2,8.2,6c3,1.9,6,3.8,9,5.6
			c1.1,0.7,2.3,0.9,3.6,0.5c1.3-0.4,2.3-1.4,3-2.5c1.3-2.3,1.3-5.8-1.1-7.4c-2.6-1.7-5.2-3.4-7.8-5.1c-2.3-1.5-4.5-3.2-6.7-4.8
			c-4.5-3.4-8.9-7.1-13.5-10.4c-4.8-3.5-9.7-7-14.5-10.6c-4.7-3.5-9.1-7.3-13.5-11.2c-1.5-1.3-2.9-2.7-4.4-4.1
			c-4.2-4-8.4-7.9-12.6-11.8c-6.4-6.1-12.7-12.2-19.3-18c-3.2-2.8-6.4-5.6-9.5-8.5c-3.2-2.9-6.4-5.8-9.7-8.6
			c-0.6-0.5-1.5-0.7-2.3-0.7C-134,26-134.5,26.1-135,26.2"/>
		<path id="Fill-21" class="st1" d="M258.9-100.3c-0.7,0.8-1.4,1.7-2.1,2.5c-0.6,0.6-1.2,1.2-1.8,1.8c-3.9,3.2-8.1,5.9-12.3,8.7
			c-4.6,3-9.4,5.8-14.1,8.7c-4.7,2.9-9.2,5.9-13.5,9.3c-4.8,3.7-9.5,7.6-13.8,12c-2.6,2.6-5.2,5.3-7.8,7.9c-2.7,2.7-5.4,5.2-8.1,7.8
			c-5.2,5-9.9,10.6-15.4,15.4c-2.6,2.1-5.2,4.1-7.8,6.2c-3.1,2.4-6.2,4.9-8.8,7.8c-2.4,2.7-4.6,5.5-6.9,8.2c-2.2,2.5-4.7,4.8-7.3,7
			c-4.1,3.4-8.4,6.7-12.6,10c-4.3,3.4-8.5,6.8-12.8,10.2c-4.3,3.4-8.7,6.6-13.2,9.7c-4.8,3.2-9.2,7-13.6,10.7
			c-0.5,0.4-1,0.8-1.4,1.2c0.4-0.3,0.7-0.6,1.1-0.9c-4.2,3.4-8.6,6.3-13.2,9.1c-4.8,2.9-9.6,5.7-14.3,8.7C49.2,67.7,40,74.6,31.2,82
			c-4.3,3.6-8.4,7.5-12.5,11.3c-3.9,3.7-7.7,7.6-11.7,11.2c-4.2,3.4-8.6,6.5-13.3,9.3c-2.3,1.4-4.7,2.8-7,4.3
			c-2.3,1.4-4.6,2.9-6.9,4.2c-2.6,1.5-3.5,5.2-2.4,7.9c0.5,1.2,1.5,2.2,2.8,2.6c1.4,0.4,2.6,0.1,3.8-0.6c4.5-2.6,8.9-5.3,13.4-8
			c2.4-1.4,4.7-2.9,6.9-4.4c2.2-1.5,4.3-3.2,6.4-4.9c4.7-3.8,8.7-8.2,12.9-12.3c4.1-3.9,8.2-7.8,12.5-11.5c0.9-0.7,1.7-1.5,2.6-2.2
			c-0.4,0.3-0.7,0.6-1.1,0.9c4.3-3.5,8.7-7,13.2-10.2c4.6-3.3,9.3-6.5,14.1-9.5c4.6-2.9,9.3-5.5,13.9-8.4c2.3-1.4,4.6-2.9,6.8-4.5
			c2.5-1.8,4.8-3.7,7.2-5.7c1.5-1.3,3-2.6,4.5-3.9c1.9-1.5,3.8-3.1,5.9-4.4c2.4-1.6,4.7-3.2,7.1-4.9c4.4-3.2,8.6-6.6,12.8-10
			c4.3-3.4,8.6-6.8,12.9-10.1c4.6-3.6,9.3-7.2,13.6-11.3c2.5-2.3,4.6-5,6.7-7.6c1.1-1.3,2.2-2.6,3.4-3.9c1.2-1.3,2.5-2.5,3.8-3.6
			c4.2-3.5,8.7-6.7,12.8-10.3c4.1-3.5,7.7-7.6,11.5-11.5c3.8-3.9,7.7-7.5,11.6-11.2C203.3-45,207-49,211-52.7c0.6-0.6,1.3-1.1,2-1.7
			c4-3.3,8.1-6.5,12.4-9.4c4.8-3.2,9.7-6.1,14.6-9.1c4.5-2.7,8.9-5.5,13.2-8.5c2.5-1.8,4.9-3.6,7.3-5.6c0.9-0.7,1.8-1.5,2.6-2.4
			c1.1-1.3,2.1-2.7,3-4.2c1.3-2,1.3-5-0.2-6.9c-0.9-1.1-2.1-1.6-3.4-1.6C261.1-102,259.8-101.4,258.9-100.3"/>
		<path id="Fill-23" class="st1" d="M60.9-102.2c0,0.2,0,0.4,0,0.5c0,0,0,0,0,0C60.9-101.8,60.9-102,60.9-102.2 M59-109.5
			c-0.1,0.1-0.3,0.3-0.5,0.4C58.7-109.2,58.9-109.4,59-109.5 M59.8-115c-1.3,0-2.6,0.7-3.5,1.6c-1.5,1.5-2.3,4.2-1.5,6.3
			c-0.5,0.4-1,0.8-1.5,1.2c-0.5,0.6-0.9,1.2-1.3,1.8c-0.5,0.9-0.8,1.9-0.9,2.9c-0.3,1.6,0,3.3,0.6,4.7c0.5,1.3,1.2,2.4,1.9,3.5
			c0.3,0.4,0.6,0.7,1,1c0.7,0.6,1.3,1.2,2,1.8c1.1,0.9,2.3,1.6,3.5,2.3c1.2,0.7,2.4,0.9,3.8,0.5c1.4-0.4,2.5-1.4,3.2-2.6
			c0.8-1.3,1.1-2.9,0.8-4.3c-0.2-1.2-0.9-2.7-2-3.3c-1.1-0.6-2.1-1.3-3.2-2.1c0.1-0.1,0.3-0.2,0.4-0.4c0.8-0.5,1.4-1.2,1.9-2
			c0.2-0.2,0.4-0.5,0.6-0.7c0.5-0.9,0.8-1.8,0.9-2.8c0.2-1.2,0.1-2.3-0.3-3.5c-0.3-0.9-0.8-1.7-1.4-2.4c-0.5-0.7-1.2-1.3-1.7-1.9
			C62.2-114.4,61.2-115,59.8-115C59.8-115,59.8-115,59.8-115"/>
		<path id="Fill-25" class="st1" d="M-30.6-51.1c-0.1,0.2-0.2,0.3-0.3,0.5C-30.8-50.8-30.7-50.9-30.6-51.1 M-2.8-75.2
			c-1.6,1.1-3.2,2.1-4.7,3.4c-2.2,1.8-4.4,3.6-7,5c0.2-0.1,0.5-0.2,0.7-0.3c-0.7,0.3-1.4,0.7-2,1c-1.5,0.6-3,1.1-4.4,1.9
			c-2.4,1.4-4.4,3.2-6.1,5.4c-0.9,1.2-1.8,2.4-2.5,3.7c-0.6,1.1-1,2.2-1.5,3.4c-0.2,0.5-0.4,0.9-0.7,1.4c-0.3,0.2-0.7,0.4-1,0.6
			c-0.5,0.4-1.1,0.9-1.6,1.4c-0.5,0.6-0.9,1.2-1.2,1.9c-1.3,2.5-1.1,5.3,0.2,7.8c0.6,1.2,1.4,2.2,2.8,2.6c1.3,0.4,2.6,0.1,3.7-0.6
			c1.6-1,2.6-2.9,2.8-4.9c0.4-0.4,0.8-0.8,1.2-1.3c1.1-1.5,1.9-3,2.6-4.7c0.6-1.2,1.2-2.4,1.9-3.5c0.6-0.8,1.3-1.5,2-2.2
			c0.5-0.4,1-0.7,1.6-1c1.1-0.5,2.3-0.9,3.4-1.4c1.3-0.6,2.5-1.2,3.7-1.9c1.2-0.7,2.3-1.5,3.4-2.3c1.2-0.9,2.3-1.8,3.5-2.8
			c1.2-0.9,2.4-1.7,3.5-2.6c1.2-0.9,2.1-2,2.5-3.5c0.4-1.4,0.4-3-0.2-4.3C2.9-75,1.3-76-0.4-76C-1.2-76-2.1-75.8-2.8-75.2"/>
		<path id="Fill-27" class="st1" d="M12.6-69.8c-2.2,1.5-4.5,2.9-6.8,4.3c-2.6,1.6-5,3.4-7.3,5.4c-1.5,1.3-2.8,2.7-4.3,4
			c-1.7,1.2-3.6,2.1-5.5,3.1c-2.4,1.4-4.4,3.5-6.3,5.5c-1.9,2-3,5.4-1.1,7.8c1.8,2.3,5.2,1.8,7.1-0.2c1-1,1.9-2,3-2.9
			c1.4-0.9,2.9-1.7,4.5-2.4c1.7-0.8,3.1-2,4.6-3.2c1.8-1.5,3.5-3.2,5.3-4.7c3.5-2.6,7.3-4.5,10.8-7c1.3-0.9,2.3-2,2.9-3.6
			c0.5-1.3,0.6-2.9,0-4.2c-0.5-1.3-1.6-2.2-2.8-2.5C15.2-70.8,13.8-70.6,12.6-69.8"/>
		<path id="Fill-29" class="st1" d="M115.9-203.4c0,0.1-0.1,0.3-0.2,0.4C115.8-203.1,115.9-203.3,115.9-203.4 M116.1-204.2
			c0,0.1,0,0.2-0.1,0.4c0,0,0,0,0,0C116.1-203.9,116.1-204,116.1-204.2 M115.8-218.4c-0.9,0.6-1.5,1.5-1.8,2.5
			c-0.3,1.1-0.2,2.1,0.1,3.1c0.1,0.3,0.2,0.6,0.3,0.9c0.2,0.7,0.4,1.5,0.6,2.2c0.1,0.7,0.3,1.3,0.5,2c0.2,0.7,0.3,1.4,0.5,2.2
			c0.1,0.5,0.1,1,0.1,1.4c0,0.1,0,0.3,0,0.4c-0.1,0.1-0.1,0.1-0.2,0.2c-0.3,0.2-0.6,0.4-1,0.6c-0.4,0.2-0.9,0.3-1.3,0.5
			c-1,0.5-1.9,1.1-2.6,2c-1,1.2-1.6,2.6-2,4.1c-0.2-0.2-0.5-0.4-0.7-0.7c-0.5-0.4-1-0.8-1.5-1.2c-0.6-0.4-1.2-0.7-1.9-0.9
			c-0.1,0-0.3,0-0.4-0.1c-0.4-0.1-0.9-0.2-1.3-0.1c-0.7,0-1.5,0.3-2.1,0.7c-1.3,0.8-2,2.3-2.3,3.8c-0.3,1.5-0.4,3.1-0.4,4.7
			c0,1.9,0,3.7,0.1,5.6c-1.9-2-3.9-3.8-5.9-5.6c-0.7-0.6-1.8-0.6-2.6-0.4c-0.9,0.3-1.7,1-2.2,1.9c-0.5,0.9-0.8,2.1-0.6,3.1
			c0.2,1,0.6,1.7,1.4,2.4c1,0.9,2,1.8,3,2.7c1.6,1.7,3.1,3.3,4.6,5.1c1.1,1.3,2.1,2.6,3.3,3.7c0.4,0.4,1.4,0.6,2,0.6
			c1,0,2-0.5,2.7-1.3c0.5-0.5,1-1.4,1.2-2.1c0.3-0.9,0.3-1.8,0.3-2.7c0.1-0.9,0-1.9-0.1-2.8c0-0.7-0.1-1.4-0.1-2
			c0-1.1-0.1-2.3-0.1-3.4c0-1,0-2.1-0.1-3.1c0.8,1,1.6,2,2.3,3c0.5,1.1,1.2,2,2.4,2.3c2.4,0.6,4.4-1.6,4.6-3.9
			c0.1-2,0.2-4.1,0.5-6.1c0.1-0.5,0.3-1.1,0.4-1.6c0,0,0-0.1,0.1-0.1c0.7-0.3,1.5-0.5,2.1-0.9c1.1-0.6,2.1-1.4,2.9-2.3
			c1-1.1,1.7-2.4,2-3.9c0.4-1.6,0.3-3.3,0.1-4.9c-0.1-1.2-0.4-2.5-0.7-3.7c-0.1-0.6-0.3-1.3-0.4-1.9c-0.3-1.5-0.8-2.9-1.2-4.4
			c-0.3-0.9-1.1-1.6-2-1.9c-0.3-0.1-0.6-0.1-0.9-0.1C117-219,116.4-218.8,115.8-218.4"/>
		<path id="Fill-31" class="st1" d="M-81.4-73.2c-0.1,0.1-0.2,0.1-0.3,0.2c0,0,0,0,0,0C-81.6-73.1-81.5-73.2-81.4-73.2 M-90.9-72.3
			c-0.6-1.3-1.1-2.7-1.7-4c-0.1-0.2-0.2-0.4-0.3-0.7c0.3,0.2,0.5,0.4,0.8,0.6c0.8,0.8,1.5,1.7,2.2,2.7c-0.1,0.3-0.3,0.6-0.4,0.9
			c-0.2,0.4-0.2,0.8-0.3,1.2C-90.7-71.8-90.8-72-90.9-72.3 M-95.7-78.2L-95.7-78.2c0,0-0.1,0.1-0.1,0.1
			C-95.8-78.1-95.7-78.1-95.7-78.2 M-58.1-95.8c-0.3,0.1-0.7,0.3-1,0.5c-0.7,0.5-1.1,1-1.6,1.7c-0.4,0.6-0.7,1.2-1.1,1.8
			c-0.4,0.8-1,1.5-1.5,2.2c0.2-0.2,0.3-0.5,0.5-0.7c-0.4,0.6-0.9,1.1-1.3,1.6c-1.2,1.4-2.6,2.7-4,4c-1.3,1.1-2.7,2.1-4.1,3.1
			c-0.8,0.6-1.6,1.2-2.5,1.7c-0.4-0.2-0.8-0.4-1.2-0.6c-1-0.4-2.1-0.5-3.1-0.6c-2-0.2-4.1,0.2-5.8,1.3c-1.1-1.4-2.3-2.7-3.7-3.9
			c-0.6-0.6-1.4-1-2.2-1.4c-0.5-0.2-0.9-0.5-1.4-0.7c-0.6-0.3-1.4-0.3-2-0.4c-1-0.1-2,0-3,0.2c-1,0.3-2,1.2-2.7,2
			c-0.9,1.1-1.5,2.4-1.6,3.8c-0.1,1.3,0.3,2.5,0.6,3.7c0.2,0.6,0.5,1.1,0.7,1.7c0.2,0.5,0.4,1,0.6,1.5c0.6,1.5,1.3,2.9,1.9,4.4
			c0.6,1.4,1.2,2.9,1.8,4.3c-0.2-0.2-0.4-0.4-0.6-0.6c-1.3-1.4-2.8-2.6-4.2-3.9c-0.9-0.7-1.8-1.4-2.7-2c-0.5-0.4-1.2-0.8-1.8-1
			c-0.6-0.2-1.3-0.4-1.9-0.4c-3,0-4.5,3.3-3.9,5.9c0.2,0.8,0.4,1.6,0.6,2.4c0.2,0.9,0.5,1.7,1.3,2.2c0.7,0.5,1.6,0.6,2.5,0.4
			c0.6-0.2,1.2-0.6,1.6-1.1c0.8,0.7,1.6,1.4,2.4,2.2c1.8,1.8,3.4,3.7,5.1,5.6c0.6,0.8,1.3,1.5,1.9,2.3c0.5,0.6,0.9,1.1,1.4,1.7
			c0.4,0.5,0.8,0.9,1.3,1.3c0.7,0.5,1.7,0.6,2.5,0.6c1.6,0,3.2-1.4,3.5-3c0.2-1,0.4-2,0.5-3c0-0.6,0-1.1-0.1-1.7
			c0-0.5-0.1-0.9-0.2-1.4c-0.3-2-0.9-4-1.4-5.9c-0.1-0.3-0.2-0.5-0.2-0.8c0.1,0,0.2,0.1,0.3,0.1c1.1,0.3,2.4-0.1,3.2-0.8
			c0.6-0.4,1-0.9,1.4-1.5c0.3-0.6,0.6-1.1,0.8-1.8c0.3-1,0.4-2.2,0.5-3.2c0-0.3,0-0.6,0-0.9c0,0,0,0,0,0c0,0,0,0,0.1,0
			c0.1-0.1,0.3-0.1,0.4-0.1c0.7-0.1,1.3,0,2,0c0.5,0.1,1,0.2,1.4,0.4c0.6,0.3,1.2,0.6,1.8,0.9c1,0.4,2.2-0.1,3.1-0.5
			c1-0.5,2-1.2,2.9-1.8c2.3-1.5,4.5-3.1,6.6-4.9c2.2-1.9,4.3-4,6-6.4c0.4-0.6,0.8-1.1,1.2-1.7c0.4-0.6,0.7-1.1,1-1.7
			c1.1-1,1.6-2.8,1.4-4.2c-0.2-0.9-0.6-1.9-1.4-2.4c-0.5-0.3-1.1-0.6-1.8-0.6C-57.5-96-57.8-95.9-58.1-95.8"/>
		<path id="Fill-33" class="st1" d="M161.9-161c-0.2-0.3-0.3-0.6-0.4-0.9c-0.1-0.3-0.1-0.7-0.1-1c0-0.5,0.1-1,0.2-1.4
			c0.2-0.4,0.4-0.9,0.6-1.3c0.3-0.4,0.5-0.7,0.8-1.1c0.2-0.2,0.5-0.4,0.7-0.6c0.3-0.1,0.5-0.3,0.8-0.4c0.3-0.1,0.5-0.1,0.8-0.2
			c0.5,0,1,0,1.5,0c0.6,0.1,1.1,0.2,1.6,0.4c0.7,0.3,1.3,0.7,1.9,1.1c0.5,0.4,0.9,0.8,1.3,1.3c0.2,0.4,0.4,0.7,0.6,1.2
			c0.1,0.5,0.2,1,0.3,1.6c-0.1,0.5-0.1,1-0.3,1.5c0,0,0,0.1-0.1,0.1c-0.8,0.1-1.5,0.5-2.2,1c-0.2,0.1-0.3,0.2-0.5,0.3
			c-0.4,0.2-0.8,0.4-1.2,0.6c-0.1,0-0.2,0-0.3,0.1c-0.3,0-0.5,0-0.8,0c-1.1-0.2-2.1-0.5-3.1-0.9c-0.5-0.2-1-0.5-1.5-0.8
			C162.3-160.5,162.1-160.7,161.9-161 M172.2-149.7c0,0,2-1.4,2.9-2.3c1.6-1.6,2.9-3.3,3.9-5.3c0.5-0.9,0.8-1.8,1-2.8
			c0.3-1.2,0.5-2.3,0.5-3.5c-0.1-2.2-0.8-4.4-2.2-6.1c-1.4-1.8-3.4-3.2-5.5-4.1c-4.1-1.7-8.8-1.6-12.6,0.6c-4,2.4-7,6.9-6.8,11.7
			c0,1,0.2,1.8,0.5,2.8c0.4,1.1,1,2.1,1.7,3c0.3,0.3,0.6,0.6,1,0.9c0.6,0.5,1.1,0.9,1.8,1.2c0.4,0.2,0.7,0.3,1.1,0.5
			C160.3-153,165.8-149.7,172.2-149.7z"/>
	</g>
</g>
</svg>
