<svg xmlns="http://www.w3.org/2000/svg" xmlns:xlink="http://www.w3.org/1999/xlink" xml:space="preserve" version="1.1" style="shape-rendering:geometricPrecision;text-rendering:geometricPrecision;image-rendering:optimizeQuality;" viewBox="0 0 19.222 3.162" x="0px" y="0px" fill-rule="evenodd" clip-rule="evenodd"><defs><style type="text/css">
   
    .fil0 {fill:black}
   
  </style></defs><g><path class="fil0" d="M1.79 0.098l0.324 1.004 1.054 -0.002c0.079,0 0.142,0.063 0.142,0.141 0,0.047 -0.023,0.089 -0.059,0.115l-0.853 0.618 0.327 1.002c0.024,0.075 -0.016,0.155 -0.091,0.179 -0.048,0.016 -0.099,0.004 -0.135,-0.027l-0.844 -0.615 -0.852 0.621c-0.063,0.046 -0.151,0.032 -0.197,-0.031 -0.028,-0.038 -0.034,-0.085 -0.021,-0.127l0.328 -1.002 -0.854 -0.618c-0.064,-0.046 -0.078,-0.135 -0.032,-0.198 0.03,-0.041 0.078,-0.062 0.125,-0.058l1.045 0.002 0.323 -1.004c0.024,-0.074 0.104,-0.115 0.179,-0.091 0.045,0.014 0.077,0.049 0.091,0.091zm15.912 0l0.324 1.004 1.055 -0.002c0.078,0 0.141,0.063 0.141,0.141 0,0.047 -0.023,0.089 -0.058,0.115l-0.854 0.618 0.327 1.002c0.025,0.075 -0.016,0.155 -0.091,0.179 -0.048,0.016 -0.099,0.004 -0.135,-0.027l-0.844 -0.615 -0.852 0.621c-0.063,0.046 -0.151,0.032 -0.197,-0.031 -0.028,-0.038 -0.034,-0.085 -0.02,-0.127l0.327 -1.002 -0.854 -0.618c-0.063,-0.046 -0.078,-0.135 -0.032,-0.198 0.03,-0.041 0.078,-0.062 0.125,-0.058l1.045 0.002 0.324 -1.004c0.023,-0.074 0.103,-0.115 0.178,-0.091 0.045,0.014 0.078,0.049 0.091,0.091zm0.086 1.189l-0.221 -0.685 -0.22 0.685c-0.019,0.057 -0.072,0.098 -0.135,0.098l-0.719 -0.002 0.582 0.422c0.049,0.035 0.071,0.099 0.052,0.159l-0.224 0.684 0.581 -0.424c0.048,-0.035 0.116,-0.037 0.167,0l0.581 0.424 -0.222 -0.678c-0.022,-0.059 -0.003,-0.127 0.05,-0.165l0.582 -0.422 -0.712 0.002c-0.063,0.003 -0.122,-0.036 -0.142,-0.098zm-4.064 -1.189l0.324 1.004 1.055 -0.002c0.078,0 0.141,0.063 0.141,0.141 0,0.047 -0.023,0.089 -0.058,0.115l-0.854 0.618 0.327 1.002c0.025,0.075 -0.016,0.155 -0.091,0.179 -0.048,0.016 -0.099,0.004 -0.135,-0.027l-0.844 -0.615 -0.852 0.621c-0.063,0.046 -0.151,0.032 -0.197,-0.031 -0.028,-0.038 -0.034,-0.085 -0.02,-0.127l0.327 -1.002 -0.854 -0.618c-0.064,-0.046 -0.078,-0.135 -0.032,-0.198 0.03,-0.041 0.078,-0.062 0.125,-0.058l1.045 0.002 0.324 -1.004c0.023,-0.074 0.103,-0.115 0.178,-0.091 0.045,0.014 0.078,0.049 0.091,0.091zm0.086 1.189l-0.221 -0.685 -0.22 0.685c-0.019,0.057 -0.072,0.098 -0.135,0.098l-0.719 -0.002 0.582 0.422c0.049,0.035 0.071,0.099 0.052,0.159l-0.224 0.684 0.581 -0.424c0.048,-0.035 0.116,-0.037 0.167,0l0.581 0.424 -0.222 -0.678c-0.022,-0.059 -0.003,-0.127 0.05,-0.165l0.582 -0.422 -0.712 0.002c-0.063,0.003 -0.122,-0.036 -0.142,-0.098zm-4.064 -1.189l0.324 1.004 1.055 -0.002c0.078,0 0.141,0.063 0.141,0.141 0,0.047 -0.023,0.089 -0.058,0.115l-0.854 0.618 0.327 1.002c0.025,0.075 -0.016,0.155 -0.091,0.179 -0.048,0.016 -0.099,0.004 -0.135,-0.027l-0.844 -0.615 -0.852 0.621c-0.063,0.046 -0.151,0.032 -0.197,-0.031 -0.028,-0.038 -0.034,-0.085 -0.02,-0.127l0.327 -1.002 -0.854 -0.618c-0.064,-0.046 -0.078,-0.135 -0.032,-0.198 0.03,-0.041 0.078,-0.062 0.125,-0.058l1.045 0.002 0.324 -1.004c0.023,-0.074 0.103,-0.115 0.178,-0.091 0.045,0.014 0.078,0.049 0.091,0.091zm-3.978 0l0.324 1.004 1.055 -0.002c0.078,0 0.141,0.063 0.141,0.141 0,0.047 -0.023,0.089 -0.058,0.115l-0.854 0.618 0.327 1.002c0.024,0.075 -0.016,0.155 -0.091,0.179 -0.048,0.016 -0.099,0.004 -0.135,-0.027l-0.844 -0.615 -0.852 0.621c-0.063,0.046 -0.151,0.032 -0.197,-0.031 -0.028,-0.038 -0.034,-0.085 -0.021,-0.127l0.328 -1.002 -0.854 -0.618c-0.064,-0.046 -0.078,-0.135 -0.032,-0.198 0.03,-0.041 0.078,-0.062 0.125,-0.058l1.045 0.002 0.323 -1.004c0.024,-0.074 0.104,-0.115 0.178,-0.091 0.046,0.014 0.078,0.049 0.092,0.091z"></path></g></svg>