<svg xmlns="http://www.w3.org/2000/svg" xmlns:xlink="http://www.w3.org/1999/xlink" version="1.1" x="0px" y="0px" viewBox="0 0 100 100" enable-background="new 0 0 100 100" xml:space="preserve"><g><g><path d="M50.001,88.961c-25.656,0-46.79-9.097-49.657-20.811C0.125,69.044,0,69.951,0,70.871    c0,12.996,22.388,23.533,50.001,23.533C77.613,94.404,100,83.867,100,70.871c0-0.92-0.125-1.827-0.344-2.721    C96.787,79.864,75.656,88.961,50.001,88.961z"></path><path d="M50.001,80.561c-25.63,0-46.747-9.084-49.648-20.778C0.128,60.686,0,61.604,0,62.536    c0,12.995,22.388,23.528,50.001,23.528C77.613,86.064,100,75.531,100,62.536c0-0.935-0.127-1.853-0.354-2.755    C96.744,71.477,75.632,80.561,50.001,80.561z"></path><path d="M50.001,72.223c-25.656,0-46.79-9.099-49.657-20.811C0.125,52.307,0,53.211,0,54.133    c0,12.998,22.388,23.535,50.001,23.535C77.613,77.668,100,67.131,100,54.133c0-0.922-0.125-1.826-0.344-2.721    C96.787,63.124,75.656,72.223,50.001,72.223z"></path><path d="M50.001,63.766c-25.656,0-46.788-9.098-49.657-20.81C0.125,43.849,0,44.758,0,45.678c0,12.995,22.388,23.53,50.001,23.53    c27.612,0,49.999-10.535,49.999-23.53c0-0.92-0.125-1.829-0.344-2.723C96.787,54.668,75.656,63.766,50.001,63.766z"></path><path d="M50.001,55.428c-25.656,0-46.79-9.095-49.657-20.808C0.124,35.513,0,36.421,0,37.342    c0,12.993,22.388,23.531,50.001,23.531C77.613,60.873,100,50.335,100,37.342c0-0.921-0.125-1.829-0.344-2.722    C96.789,46.333,75.656,55.428,50.001,55.428z"></path><path d="M49.996,22.813c-7.404,0.01-13.396,2.832-13.408,6.315c0.012,3.487,6.004,6.302,13.408,6.31    c7.404-0.008,13.398-2.828,13.414-6.31C63.395,25.645,57.4,22.823,49.996,22.813z M50.001,31.837    c-3.177,0-5.756-1.214-5.756-2.709s2.579-2.709,5.756-2.709c3.176,0,5.757,1.214,5.757,2.709S53.177,31.837,50.001,31.837z     M50.001,5.596C22.388,5.596,0,16.13,0,29.127c0,12.994,22.388,23.531,50.001,23.531C77.613,52.658,100,42.122,100,29.127    C100,16.13,77.613,5.596,50.001,5.596z M49.996,36.203c-8.307,0-15.034-3.169-15.043-7.076c0.01-3.91,6.736-7.08,15.043-7.08    c8.3,0,15.046,3.169,15.046,7.08C65.042,33.034,58.296,36.203,49.996,36.203z M71.533,44.834l-9.706-7.055    c3.252-0.987,5.899-2.361,7.668-3.992l16.139,3.589C82.439,40.424,77.559,43.002,71.533,44.834z"></path></g></g></svg>