<?xml version="1.0" encoding="utf-8"?>
<!-- Generator: Adobe Illustrator 22.1.0, SVG Export Plug-In . SVG Version: 6.00 Build 0)  -->
<svg version="1.1" id="Layer_1" xmlns="http://www.w3.org/2000/svg" xmlns:xlink="http://www.w3.org/1999/xlink" x="0px" y="0px"
	 viewBox="0 0 378.9 283" style="enable-background:new 0 0 378.9 283;" xml:space="preserve">
<style type="text/css">
	.st0{filter:url(#Adobe_OpacityMaskFilter);}
	.st1{fill:#FFFFFF;}
	.st2{mask:url(#mask-2_1_);}
</style>
<title>gears0001_DL</title>
<desc>Created with Sketch.</desc>
<g id="gears0001_DL">
	<g id="gears0001" transform="translate(211.000000, 286.000000)">
		<g id="Group-373" transform="translate(0.000000, 53.583426)">
			<g id="Clip-372">
			</g>
			<defs>
				<filter id="Adobe_OpacityMaskFilter" filterUnits="userSpaceOnUse" x="-211" y="-286.2" width="248.3" height="229.6">
					<feColorMatrix  type="matrix" values="1 0 0 0 0  0 1 0 0 0  0 0 1 0 0  0 0 0 1 0"/>
				</filter>
			</defs>
			<mask maskUnits="userSpaceOnUse" x="-211" y="-286.2" width="248.3" height="229.6" id="mask-2_1_">
				<g class="st0">
					<polygon id="path-1_1_" class="st1" points="-211,-286.2 37.3,-286.2 37.3,-56.5 -211,-56.5 					"/>
				</g>
			</mask>
			<path id="Fill-371" class="st2" d="M-89.9-108.2c26.6,3.4,54.7-21.1,66.6-42.4c6.8-12.1,10.2-25.7,6.9-39.2
				c-6.3-26-20.5-42.6-50.7-32.5c-2.6,0.9-5,2-7.5,3.1c-4.2,1.8-8.6,3.5-13.1,1.9c-12.8-4.5-22.8,1.1-32.8,7.9
				c-11,7.5-17.8,17.9-20.7,30.7c-1.6,7-2.8,14.2-3.7,21.3c-3.7,28.1,6.7,42.6,34.5,47.9C-105-108.4-99.5-108.7-89.9-108.2
				 M-186.5-156c-4.4,0.8-8.9,1.9-13.3,2.4c-5,0.6-8.8-1.3-10.5-6.3c-1.6-4.8-0.1-8.8,3.2-12.3c3.3-3.5,7.5-4.9,12.1-5.3
				c8.1-0.7,16.2-1.4,24.3-2c6.7-0.5,8.9-5.4,10.5-10.7c1.9-6.2-0.6-11.4-6.4-12.6c-4.4-0.9-9.1-0.2-13.4-1.3
				c-3.4-0.9-6.4-3.7-6.9-7.6c-0.7-5.1,2-8.8,6.5-10.6c3.3-1.3,7.1-2.1,10.5-1.7c5.4,0.6,10.5,2.6,15.9,3.5
				c15.5,2.4,25.6-9.7,20.2-24.2c-1.6-4.2-3.7-8.3-4.6-12.7c-1-4.8,1.4-8.8,5.9-11.1c3.8-1.9,7.1-0.6,9.6,2.3
				c2.4,2.7,4.2,5.8,6.6,8.5c9.2,10.3,14.1,10.9,25.8,4.2c4.4-2.5,6.4-6,6.8-10.8c0.5-5.3,0.6-10.8,2-15.9c0.9-3.4,3.9-6.2,8.1-6
				c3.9,0.2,6.8,2.3,8.4,5.8c2.6,5.9,2.5,12.2,2.9,18.5c0.9,12.9,12.8,17.8,23.4,9.7c5-3.8,8.9-8.9,13.4-13.3
				c5.1-5.1,9.2-5.5,14-1.4c6.1,5.2,6.9,10,2.4,16.2c-3.6,5.1-7.5,10.1-10.9,15.3c-0.7,1.1-0.2,3.7,0.7,4.9c0.9,1.2,3.1,1.9,4.7,1.9
				c7.5-0.4,13.5-4.8,20-7.8c3.2-1.5,6.8-2.5,10.3-2.7c5-0.2,8.4,3.1,10.2,7.5c1.9,4.7,1,9.2-3.4,11.7c-5.5,3.1-11.6,5.1-17.2,8.1
				c-4.2,2.2-6.8,5.8-5.7,11c1.2,5.8,4.2,10.3,10.4,10.9c5.3,0.5,10.8-0.2,16.2-0.1c6.4,0.2,9.4,4.6,10.9,10.1
				c1.1,4-0.5,7.9-4.1,8.8c-6,1.6-12.4,2.1-18.7,2.6c-8.9,0.7-12.1,6.5-14,14.1c-1.6,6.6-1.9,12.3,5.5,16c5,2.4,8.7,6.4,10.5,11.8
				c1.2,3.6,1.5,7.4-0.9,10.3c-2.4,2.9-6.2,3.7-9.9,2.4c-2.5-0.9-5-2.1-7.3-3.5c-4.8-2.9-10-5.8-15.1-2.5
				c-6.8,4.3-13.1,9.6-17.1,16.9c-2,3.6,0.1,7.1,1.4,10.3c2.4,5.8,6.4,10.9,6,17.7c-0.2,3.3-4.4,6.4-7.6,5.4c-8.6-2.5-12-10.6-18-16
				c-5.3-4.8-10.8-5.5-17.5-3.8c-7.1,1.8-11.2,5.5-11.2,13c0,2.7,0.1,5.4,0,8.1c-0.3,4.3,0.7,9.3-5.1,11
				c-5.4,1.6-11.7-3.2-13.6-10.4c-0.7-2.6-0.4-5.4-0.9-8c-2.1-10.9-6.7-14.9-18-15.8c-3.9-0.3-7.4,0.7-9.6,3.8
				c-3.6,5.1-6.5,10.8-10.1,16c-2.2,3.1-5.8,4.9-9.4,3.2c-4.1-2-8.2-5.4-7.1-10.4c1.1-5.1,3.8-9.9,5.8-14.9
				c1.8-4.4,2.6-8.6-0.9-12.6c-4.4-5-9.9-4.2-14.9-2c-4.9,2.2-9.2,5.7-13.9,8.2c-5.2,2.7-11.4,0.7-14-4.2c-2.6-4.8-0.8-8.9,2.8-12
				c5.5-4.7,11.4-8.9,17.2-13.1c5.9-4.2,7.6-9.8,5.7-16.6c-1.7-6.1-7.4-10.3-14.2-10.6C-182.9-156.3-184.7-156.1-186.5-156"/>
		</g>
		<path id="Fill-394" d="M83.6-181.1c8.8-0.1,16.4-2.1,23.9-5.6c10.2-4.7,14.4-12.7,14.8-23.4c0.6-15.4-11.3-25.4-26.2-21.1
			c-13.4,3.9-23.2,13.3-31,24.2c-6.9,9.7-0.9,21.7,11.1,24.6C78.9-181.8,81.6-181.5,83.6-181.1 M21.3-191.3c-0.9,0-4.6,0.1-8.1-0.5
			c-4.7-0.7-9.7-7.4-9.2-12c0.7-5.3,4.5-7.6,9.2-8.4c7.1-1.3,14.4-1.8,21.5-3.2c8-1.6,12.3-8.6,9.9-16.1c-1.6-5.1-4.7-9.7-6.5-14.8
			c-1.9-5.4-1.4-10.8,3.5-14.6c5.2-4.1,10.7-2.9,14.5,1.5c6.1,7,11.7,14.8,22.4,10.4c9.5-4,11.2-13.3,12.9-22.3
			c0.7-3.5,1.3-7.2,3.1-10.2c1.2-2,4-3.7,6.3-4.3c4-0.9,6.9,1.7,8.8,4.8c4.2,6.6,2.1,13.9,2.4,21c0.4,10.5,10.7,14.9,19.7,8.9
			c1.5-1,2.7-2.4,4-3.6c1.3-1.2,2.6-2.6,4.1-3.6c7-4.7,12.5-4.3,16.7,1c5.4,6.9,5.2,13.3-0.9,19c-3.3,3-7.3,5.4-10.5,8.5
			c-4,3.9-2.6,11,2.7,13.6c4.8,2.4,10.2,3.6,14.8,6.4c4.1,2.5,5.6,7.5,5.1,11.9c-0.5,5.1-4.8,7.1-9.8,7.4c-3.6,0.2-7.3,0.3-10.7,1.3
			c-7.3,2.3-11.5,8.6-15.6,14.4c-5.5,7.8,3.8,10.5,6.2,15.5c1.9,4,3.8,8.2,4.6,12.6c0.4,2.1-1.3,5.4-3.1,6.7
			c-1.8,1.3-5.2,1.6-7.5,0.8c-8.2-2.8-12.3-10.2-17.5-16.4c-3.1-3.8-7.2-5.4-12-3.7c-4.6,1.6-7.8,4.9-8.1,9.9
			c-0.4,7.2,0.5,14.5-0.6,21.5c-0.5,3.3-4.4,5.4-8.7,3.8c-5.4-2.1-9.3-5.5-10.4-11.4c-1-5.3-1.3-10.7-2.5-16
			c-0.9-4.1-7.3-6-11.2-4.5c-5.4,2.1-8.1,6.9-12,10.6c-4.4,4.1-10.2,3.7-14.6-0.2c-4.6-4.2-5.6-9.5-2.5-14.6
			c2.8-4.5,7-8.2,10.4-12.4c3-3.6,4.9-7.8,2.9-12.5c-2.4-5.5-6.9-8.1-13-7.7C29.4-192.5,26.7-192,21.3-191.3"/>
	</g>
</g>
</svg>
