<?xml version="1.0" encoding="utf-8"?>
<!-- Generator: Adobe Illustrator 22.1.0, SVG Export Plug-In . SVG Version: 6.00 Build 0)  -->
<svg version="1.1" id="Layer_1" xmlns="http://www.w3.org/2000/svg" xmlns:xlink="http://www.w3.org/1999/xlink" x="0px" y="0px"
	 viewBox="0 0 434 410" style="enable-background:new 0 0 434 410;" xml:space="preserve">
<style type="text/css">
	.st0{stroke:#000000;stroke-width:3;}
</style>
<title>happyheart_DL</title>
<desc>Created with Sketch.</desc>
<g id="happyheart_DL">
	<g id="happyheart" transform="translate(185.000000, 239.000000)">
		<path id="Fill-2" class="st0" d="M48.2,127.9c0,0.1,0.1,0.1,0.1,0.2C48.2,128,48.2,127.9,48.2,127.9 M-9.5-143
			c0.1,0,0.2,0.1,0.3,0.1C-9.3-142.9-9.4-143-9.5-143 M-28.3-156.3l-4.4,0.4c-3.3,0.3-6.6,0.8-9.8,1.6c-3.5,0.8-6.8,2-10.1,3.4
			c-3.4,1.4-6.6,3.1-9.7,5.1c-6.1,3.8-11.6,8.5-16.1,14.1c-2.3,2.9-4.4,5.9-6.4,9.1c-0.7,1.2-1.4,2.5-2.1,3.8
			c-2.5,4.4-4.6,9.1-6.5,13.8c-0.5,1.3-1.1,2.7-1.6,4c-0.5,1.3-0.9,2.6-1.3,4c-0.8,2.3-1.3,4.7-2,7c-0.4,1.6-0.7,3.3-1,5
			c-0.3,1.9-0.6,3.9-0.8,5.8c-0.2,1.8-0.3,3.7-0.4,5.5c-0.1,2.7-0.2,5.3-0.2,8c0,10.4,0.6,20.8,2.6,31c0.5,2.7,1.2,5.4,1.8,8
			c0.6,2.5,1.4,4.9,2.1,7.4c0.3,0.9,0.6,1.8,0.9,2.7c0.4,1.2,0.8,2.5,1.2,3.7c0.8,2.3,1.6,4.6,2.5,6.8c1.1,2.7,2.2,5.5,3.4,8.2
			c1.1,2.3,2.1,4.7,3.3,7c2.4,4.8,4.8,9.5,7.4,14.2c4.6,8.6,9.7,17,15.5,24.8c6.2,8.4,12.7,16.8,19.4,24.8
			c6.5,7.6,13.3,14.9,20.7,21.7c3.8,3.5,7.4,7,11.1,10.5c1.8,1.7,3.5,3.4,5.4,5c1.9,1.6,3.9,3.2,5.8,5c0.9,0.8,1.8,1.6,2.6,2.5
			c1.9,1.8,4.9,1.9,6.7,0c1.8-1.8,1.9-4.9,0-6.7c-1.8-1.7-3.6-3.4-5.5-5c-2.2-1.8-4.3-3.7-6.4-5.5c-3.5-3.1-6.8-6.5-10.2-9.7
			c-2-1.8-4-3.7-5.9-5.5c-1.9-1.8-3.8-3.7-5.7-5.6c-1.7-1.7-3.3-3.5-5-5.2c-1.5-1.6-3-3.3-4.4-5c-2.8-3.4-5.5-6.8-8.2-10.2
			c-2.8-3.7-5.7-7.4-8.4-11.2c-2.9-4.1-5.8-8.1-8.5-12.4c-1.4-2.2-2.8-4.5-4.1-6.8c-1.4-2.4-2.7-4.8-4-7.2c-2.4-4.5-4.7-9.1-7-13.7
			c-1.9-3.9-3.7-7.9-5.5-11.9c-1.3-3.4-2.6-6.8-3.8-10.2c-1.2-3.3-2.2-6.7-3.2-10.1c-1-3.4-2-6.8-2.6-10.2c-0.4-1.9-0.9-3.8-1.2-5.7
			c-0.2-1.6-0.5-3.3-0.7-4.9c-0.2-2.5-0.5-4.9-0.6-7.4c-0.2-3.1-0.3-6.3-0.4-9.4c-0.2-6.3-0.1-12.7,0.7-19c0.4-2.6,0.9-5.2,1.6-7.7
			c0.4-1.5,0.8-3.1,1.3-4.6c0.5-1.6,1-3.2,1.6-4.8c0.5-1.4,1.1-2.7,1.6-4.1c0.6-1.4,1.2-2.8,1.9-4.2c0.7-1.6,1.5-3.2,2.3-4.7
			c0.7-1.5,1.6-2.9,2.4-4.4c1.6-2.9,3.4-5.6,5.3-8.2c2.7-3.4,5.8-6.4,9.2-9.2c4.2-3.2,8.8-5.9,13.6-8c4.6-1.8,9.4-3.1,14.3-3.8
			c5.3-0.7,10.7-0.9,16.1-0.3c3,0.5,6,1.3,8.9,2.4c3.6,1.6,6.9,3.6,10,5.9c4.1,3.3,7.7,7,10.9,11c3.9,5.2,6.9,10.8,10,16.5
			c2.3,4.2,4.5,8.6,6.7,12.8c2.3,4.3,4.6,8.7,6.8,13.1c1.1,2.2,2.2,4.3,3.2,6.5c0.8,1.7,1.5,3.7,3.6,4.3c1.6,0.4,3.6-0.2,4.4-1.7
			c0.5-0.9,0.7-1.8,0.9-2.9c0.4-2,0.7-3.9,1.1-5.9c0.4-1.8,1-3.4,1.6-5.1c0.8-1.8,1.6-3.6,2.6-5.4c1.3-2.3,2.6-4.6,3.9-6.8
			c2.3-3.9,4.9-7.7,7.6-11.4c1.5-1.9,3-3.7,4.6-5.5c2.3-2.6,4.8-5,7.5-7.2c3.8-2.9,8-5.3,12.3-7.2c2.2-0.9,4.4-1.6,6.7-2.3
			c2.6-0.7,5.3-1.1,8-1.5c3.5-0.4,7-0.1,10.6,0.3c1,0.1,2,0.3,3,0.5c1.1,0.2,2.1,0.4,3.2,0.7c0.7,0.2,1.4,0.5,2.1,0.7
			c3.7,1.8,7.3,4,10.6,6.5c2.7,2.2,5.2,4.6,7.3,7.3c3.3,4.5,5.9,9.3,8.2,14.3c2.5,6.1,4.2,12.4,5.9,18.8c1.2,4.6,2,9.2,2.8,13.9
			c0.2,2,0.4,4,0.6,6c0.5,5.3,0.3,10.6-0.3,15.9c-0.5,3.1-1.1,6.1-1.8,9.2c-0.2,0.9-0.4,1.7-0.7,2.6c-0.4,1.6-0.8,3.2-1.3,4.7
			c-0.2,0.9-0.6,1.8-0.9,2.8c-0.5,1.4-0.9,2.9-1.4,4.3c-0.3,1-0.8,2-1.2,3c-0.5,1.2-1,2.5-1.4,3.7c-1,2.3-1.9,4.6-3,6.9
			c-0.8,1.7-1.7,3.5-2.5,5.2c-0.6,1.2-1.3,2.3-1.9,3.4c-0.6,1.1-1.3,2.3-2,3.4c-1.1,1.7-2.2,3.3-3.2,5c-1.6,2.4-3.3,4.7-4.9,7.1
			c-1.4,1.7-2.7,3.5-4.1,5.2c-1.6,2-3.3,3.9-5,5.8c-1.6,1.7-3.1,3.4-4.8,5c-1.9,1.7-3.7,3.5-5.6,5.2c-3.8,3.5-7.2,7.2-10.8,10.9
			c-1.8,1.9-3.5,3.8-5.2,5.7c-1.6,1.8-3.2,3.6-4.7,5.4c-3.4,3.8-6.8,7.6-10.1,11.5c-3.4,4.1-6.7,8.2-10.1,12.3c-1.6,2-3.2,4-4.7,6.1
			c-0.9,1.2-1.7,2.4-2.6,3.5c-0.8,1.1-1.5,2.3-2.2,3.4c-1.2,1.9-2.4,3.9-3.6,5.8c-1.3,2.2-2.6,4.4-3.7,6.6c-0.5,0.9-1,1.9-1.5,2.8
			c-0.5,0.9-0.8,1.9-1.3,2.9c-0.9,2-1.7,4.2-2.4,6.3c-0.6,1.6-1.1,3.3-1.7,4.9c-0.3,0.7-0.5,1.4-0.7,2c-0.4,1.3-0.2,3.2,0.6,4.3
			c0.3,0.4,0.5,0.7,0.8,1c0.2,0.7,0.4,1.5,0.5,2.3c0.6,5.3,0.3,10.6,0,15.8c-0.3,4.5-0.5,8.9-0.5,13.4c0,0.5,0,0.9,0,1.4
			c0,0.7,0.1,1.5,0.2,2.2c0.2,0.8,0.5,1.5,0.9,2.3c0.4,0.8,1.6,1.9,2.4,2.3c0.7,0.4,1.4,0.6,2.1,0.9c1.3,0.5,2.8,0.7,4.1,0.8
			c2.4,0.2,4.7,0.4,7.1,0.5c4.5,0.2,9.1,0.4,13.5-0.5c1.1,0.1,2.3-0.1,3.2-0.6c1.9-1.1,2.6-3.3,2.2-5.4c-0.2-1.1-0.8-2-1.6-2.8
			c-1.4-1.3-3-1.5-4.9-1.7c-0.9-0.1-1.9,0-2.8,0.1c-1.9,0.1-3.9,0.2-5.8,0.2c-3.4,0.1-6.9,0.2-10.4-0.1c0.1-1.7,0.2-3.4,0.4-5.1
			c0.2-3,0.5-6.1,0.8-9.1c0.2-2.6,0.4-5.3,0.4-7.9c-0.1-2.7-0.2-5.4-0.6-8.1c-0.3-2-0.6-3.9-1.6-5.7c-0.2-0.3-0.4-0.6-0.6-0.9
			c0.2-0.9,0.5-1.7,0.8-2.6c0.7-2,1.4-3.9,2.2-5.9c0.8-1.8,1.6-3.7,2.6-5.5c1.3-2.3,2.5-4.6,3.9-6.8c1.4-2.3,2.8-4.6,4.2-6.8
			c1.4-2.1,2.9-4.2,4.4-6.2c5.9-7.6,12-15.1,18.4-22.4c3.3-3.7,6.5-7.5,9.8-11.1c3.5-3.9,7-7.8,10.7-11.4c2-1.9,4-3.9,6-5.8
			c1.7-1.6,3.5-3.3,5.2-4.9c1.7-1.7,3.3-3.6,4.9-5.4c1.7-2,3.3-4,4.9-6c3.1-4,6.2-8.1,9-12.4c1.4-2.2,2.8-4.3,4.1-6.5
			c1.3-2.2,2.6-4.3,3.7-6.6c1.1-2.3,2.3-4.6,3.3-6.9c1.1-2.6,2.3-5.2,3.3-7.9c0.9-2.4,1.9-4.8,2.7-7.3c0.8-2.5,1.6-4.9,2.3-7.4
			c0.4-1.4,0.8-2.9,1.2-4.3c0.3-1.1,0.5-2.2,0.7-3.3c0.3-1.3,0.6-2.7,0.9-4c0.3-1.6,0.5-3.2,0.7-4.9c0.3-2.1,0.5-4.2,0.6-6.3
			c0.3-4.7-0.1-9.4-0.5-14c-0.2-2.9-0.7-5.7-1.2-8.6c-0.8-5-2.1-9.9-3.3-14.9c-0.6-2.5-1.5-5-2.2-7.4c-0.8-2.6-1.8-5-2.8-7.5
			c-1.4-3.4-3-6.7-4.9-9.8c-1.8-3.1-4-6-6.3-8.7c-2.4-2.9-5.4-5.3-8.4-7.5c-2.5-1.9-5.2-3.5-8-5.1c-2.8-1.6-6-2.8-9.2-3.4
			c-4.4-0.9-8.8-1.4-13.3-1.5c-1.8,0-3.6,0.2-5.4,0.5c-1.7,0.2-3.4,0.5-5.1,0.8c-3.4,0.6-6.6,1.7-9.8,2.9c-3,1.2-5.9,2.6-8.7,4.3
			c-1.4,0.8-2.7,1.7-4,2.6c-2.4,1.6-4.7,3.5-6.8,5.4c-1.3,1.2-2.5,2.5-3.7,3.8c-1.7,1.8-3.3,3.8-4.8,5.8c-1.6,2.1-3.1,4.2-4.5,6.3
			c-1.5,2.1-2.8,4.4-4.1,6.6c-1.2,2-2.2,4-3.3,6c-1.3,2.5-2.5,4.9-3.5,7.5c-0.4,1.1-0.9,2.2-1.2,3.4c0,0.1-0.1,0.2-0.1,0.4
			c-0.4-0.8-0.7-1.7-1.1-2.5c-2-4.5-4.1-9-6.2-13.4c-2.3-4.9-4.6-9.7-7.1-14.5c-1.1-2.1-2.3-4.2-3.5-6.3c-1.5-2.7-3.5-5.3-5.4-7.8
			c-2.2-2.9-4.7-5.6-7.3-8.1c-2.6-2.4-5.4-4.6-8.3-6.6c-3.3-2.2-6.8-3.9-10.5-5.4c-3.3-1.3-6.9-2-10.4-2.4c-2.4-0.3-4.8-0.5-7.2-0.5
			C-25.7-156.5-27-156.4-28.3-156.3"/>
		<path id="Fill-4" class="st0" d="M10.6,116.1c-1,3.8-2,7.6-2.7,11.4c-0.4,2.6-0.8,5.2-1,7.8c-0.3,3-0.5,6-0.6,9.1
			C6.1,146.9,6,149.5,6,152c0,1.3,0,2.7,0.1,4c0,0.2,0,0.4,0,0.6c-0.1,0-0.1,0-0.2,0c-2.9-0.5-5.8-1-8.7-1.1
			c-1.9-0.1-3.9,0.1-5.8,0.2c-0.7,0-1.5,0.1-2.2,0.2c-1,0.1-2.1,0.3-3.1,0.6c-1,0.3-2,0.8-3,1.2c-1.2,0.6-2.1,1.9-2.4,3.2
			c-0.4,1.4-0.2,2.9,0.5,4.1c1.5,2.6,4.7,3.3,7.2,1.9c0.3-0.2,0.6-0.3,0.9-0.5c0.9-0.3,1.9-0.5,2.9-0.7c1.6-0.2,3.3-0.4,4.9-0.4
			c2.2-0.1,4.4,0.2,6.5,0.5c0.9,0.2,1.8,0.3,2.8,0.5c1,0.2,2,0.4,3,0.5c0.4,0.1,0.8,0.1,1.2,0c0.4-0.1,0.8-0.1,1.2-0.2
			c0.5-0.2,1-0.4,1.4-0.6c1.8-0.9,2.5-3.2,2.1-5.1c-0.2-0.9-0.7-1.8-1.1-2.7c-0.3-1-0.5-2-0.7-3c-0.3-3.5-0.3-7.1-0.1-10.6
			c0.2-4.4,0.4-8.7,1-13c0.3-2.2,0.7-4.3,1.2-6.4c0.6-2.4,1.2-4.8,1.8-7.2c0.5-1.9-0.6-3.9-2.5-4.4c-0.3-0.1-0.6-0.1-0.9-0.1
			C12.5,113.5,11,114.6,10.6,116.1"/>
		<path id="Fill-6" class="st0" d="M157.2-11c0.1,0,0.1,0,0.2,0C157.3-11,157.2-11,157.2-11z M154.8-11.7c0.1,0,0.1,0.1,0.2,0.1
			C154.9-11.6,154.9-11.7,154.8-11.7z M209.8-14.2C209.9-14.2,209.9-14.2,209.8-14.2L209.8-14.2z M231.8-29.2c0.1,0,0.2,0.1,0.2,0.1
			C232-29.1,231.9-29.1,231.8-29.2z M211.1-40c-1,0.4-1.9,0.8-2.8,1.4c-0.8,0.5-1.5,1.3-2.1,2.1c-1.3,1.8-0.8,4.4,1,5.7
			c0.9,0.6,2,0.9,3.1,0.7c0.3-0.1,0.7-0.2,1-0.3c0.6-0.3,1.1-0.7,1.5-1.2c0.3-0.2,0.5-0.4,0.8-0.7c0.4-0.2,0.9-0.5,1.3-0.6
			c0.3-0.1,0.6-0.1,0.9-0.2c0.3,0,0.5,0,0.8,0c0.2,0.1,0.4,0.1,0.6,0.2c0.1,0.1,0.2,0.2,0.4,0.3c0.5,0.6,1,1.2,1.4,1.9
			c0.5,0.8,1,1.3,1.7,1.9c0.4,0.4,1.3,0.7,1.9,0.7c1,0.1,2.1-0.3,2.8-0.9c0.3-0.3,0.6-0.5,0.9-0.7c0.4-0.2,0.7-0.4,1.1-0.6
			c0.2,0,0.4-0.1,0.6-0.1c0.3,0,0.5,0,0.8,0.1c0.9,0.3,1.8,0.6,2.7,1c0.3,0.2,0.5,0.4,0.8,0.6c0.3,0.3,0.5,0.6,0.7,0.9
			c0.9,1.5,1.5,3.2,2.1,4.8c0.4,1.3,0.8,2.6,0.9,4c0,0.2,0,0.4,0,0.6c0,0.1-0.1,0.2-0.1,0.3c-0.7,1.2-1.6,2.3-2.6,3.3
			c-0.8,0.8-1.7,1.6-2.6,2.3c-0.5,0.3-1,0.5-1.5,0.7c-0.5,0.1-0.9,0.2-1.4,0.2c-1.7,0-3.5-0.3-5.2-0.6c-1.3-0.3-2.5-0.8-3.8-1.4
			c-1.1-0.7-2.2-1.4-3.2-2.3c-0.5-0.5-0.9-0.9-1.3-1.4c-0.3-0.4-0.7-0.8-1-1.1l-0.5-0.5c-0.3-0.2-0.6-0.3-0.9-0.5
			c-0.3-0.2-0.8-0.2-1.2-0.2c-0.6,0-1.1,0.1-1.7,0.2c-1.5,0.3-3,0.7-4.5,1.2c-3.5,1.1-7,2.1-10.5,2.9c-3.5,0.8-6.9,1.5-10.4,2.1
			c-1.7,0.3-3.3,0.6-5,0.9l-7.1,1c-2.5,0.3-4.9,0.6-7.4,0.7c-2.4,0.1-4.9,0-7.3-0.5c-0.7-0.2-1.5-0.4-2.2-0.7c0,0,0,0,0,0
			c0,0,0,0,0,0c-0.1-0.3-0.2-0.5-0.3-0.8c-0.6-1.5-2.6-2.1-4-1.4c-0.7,0.3-1.3,0.9-1.5,1.7c-0.3,0.8-0.2,1.6,0.1,2.4
			c0.1,0.4,0.3,0.7,0.4,1c0.2,0.5,0.6,1,1,1.4c0.8,0.9,1.9,1.4,3,1.9c1.1,0.4,2.3,0.6,3.5,0.9c1.4,0.3,2.8,0.4,4.3,0.4
			c2.6,0.1,5.3-0.1,7.9-0.3c1.1-0.1,2.2-0.2,3.3-0.4c2.4-0.3,4.9-0.7,7.3-1c1.6-0.2,3.1-0.5,4.7-0.8c7.3-1.3,14.5-2.7,21.4-5.4
			c0.8-0.3,1.6-0.6,2.4-0.9c0.6-0.2,1.1-0.5,1.6-0.7c0.3,0.4,0.6,0.8,0.9,1.2c1.1,1.3,2.4,2.6,3.8,3.6c3,2.2,6.6,3.3,10.2,3.8
			c1.7,0.3,3.4,0.3,5.2,0.1c1.9-0.2,3.6-1.2,5.2-2.2c1.5-1,2.7-2.3,3.8-3.6c0.8-0.8,1.4-1.8,2.1-2.7c0.3-0.5,0.6-1,0.9-1.5
			c0.4-0.8,0.6-1.7,0.7-2.6c0.1-0.8,0-1.6-0.1-2.4c-0.1-1-0.4-2-0.7-3c-1-3.4-2.2-7-4.6-9.6c-1.2-1.3-2.8-2.1-4.4-2.8
			c-1.5-0.6-3.1-1.1-4.7-1.1c-1.3,0-2.6,0.3-3.8,0.8c-0.2-0.3-0.4-0.6-0.6-0.9c-0.6-0.8-1.3-1.5-2.1-2.2c-0.5-0.4-1.2-0.7-1.8-1
			c-0.6-0.3-1.4-0.5-2.1-0.6c-0.4-0.1-0.8-0.1-1.1-0.2C214.6-41,212.8-40.6,211.1-40z"/>
		<path id="Fill-8" class="st0" d="M-140-38.2c-0.9,0.2-1.8,0.6-2.7,1c-0.8,0.4-1.5,1-2.2,1.5c-1.5,1.2-2.4,3.1-2.7,5
			c-0.2,0.8-0.2,1.6-0.2,2.3c-0.7,0-1.4,0-2.2,0.1c-0.9,0-1.9,0.2-2.8,0.3c-1.5,0.2-2.9,0.5-4.4,0.8c-2.2,0.6-4.4,1.6-6.3,3
			c-2.2,1.5-3.9,3.4-5.6,5.5c-1.4,1.9-2.5,4-3.1,6.2c-0.8,2.7-0.4,5.6,0.4,8.3c0.4,1.3,1,2.5,1.6,3.6c0.6,1.1,1.3,2.1,2,3
			c1.4,1.8,3.1,3.2,5.1,4.4c1.1,0.6,2.4,1.1,3.6,1.5c1.2,0.4,2.4,0.6,3.7,0.8c1.4,0.2,2.8,0.3,4.3,0.3c1.6,0,3.2-0.3,4.8-0.6
			c2.5-0.5,4.9-1.5,7.2-2.6c2.4-1.2,4.5-2.9,6.4-4.8c1.7-1.7,3.2-3.6,4.5-5.6c0.6-1,1.2-2,1.7-3c0.1-0.3,0.2-0.5,0.4-0.8
			c0.1,0,0.2,0.1,0.3,0.1c1.6,0.4,3.2,0.6,4.8,0.7C-118.6-7-115.8-7-113-7c2.9,0,5.8-0.1,8.6-0.2c2.1-0.1,4.2-0.2,6.3-0.4
			c2.7-0.2,5.3-0.8,7.9-1.4c1.9-0.5,3.1-2.6,2.6-4.5c-0.5-1.9-2.6-3-4.5-2.5c-1.6,0.4-3.1,0.8-4.7,1c-2.8,0.3-5.7,0.4-8.6,0.5
			c-1.8,0.1-3.7,0.1-5.5,0.1c-4,0-8.1,0.1-12.1-0.3c-0.9-0.2-1.8-0.4-2.7-0.6c-0.1,0-0.1-0.1-0.2-0.1c-0.6-0.3-0.9-0.6-1.5-0.8
			c-1.3-0.4-2.9,0-3.9,1c-0.9,0.8-1.2,2.1-1.6,3.2c-0.9,1.9-2,3.8-3.3,5.5c-1.2,1.5-2.6,3-4.1,4.2c-1.3,1-2.7,1.8-4.2,2.5
			c-1.8,0.7-3.7,1.2-5.6,1.6c-1.5,0.2-3.1,0.2-4.6,0c-1.3-0.2-2.6-0.6-3.9-1c-0.8-0.4-1.6-0.8-2.4-1.3c-0.8-0.7-1.5-1.4-2.1-2.2
			c-0.7-1-1.4-2.1-1.9-3.3c-0.3-0.8-0.5-1.6-0.7-2.4c0-0.7-0.1-1.3,0-1.9c0.2-0.8,0.4-1.6,0.7-2.3c0.6-1.2,1.2-2.2,2-3.3
			c1-1.2,2-2.3,3.2-3.2c0.9-0.7,1.9-1.2,2.9-1.7c1.9-0.7,3.7-1.1,5.7-1.4c1.6-0.2,3.2-0.3,4.8-0.2c0.6,0.1,1.2,0.2,1.8,0.3
			c0.5,0,1-0.1,1.4-0.4c0.6-0.4,1-1,1.3-1.7c0.2-0.7,0.2-1.2,0.1-1.9c-0.1-0.7-0.1-1.5,0-2.2c0.1-0.5,0.2-1,0.4-1.5
			c0.1-0.1,0.1-0.3,0.2-0.4c0.2-0.2,0.4-0.4,0.6-0.6c0.3-0.2,0.7-0.4,1-0.6c0.5-0.2,1-0.3,1.5-0.4c0.4,0,0.8,0,1.2,0
			c0.6,0.1,1.2,0.3,1.8,0.5c1,0.5,2,1,2.9,1.7c1.2,1,2.4,2,3.4,3.2c0.7,1.1,1.3,2.2,1.8,3.3c0.1,0.2,0.2,0.5,0.3,0.7
			c0.1,0.4,0.3,0.7,0.4,1.1c0.3,0.8,0.7,1.4,1.5,1.9c0.7,0.4,1.6,0.5,2.5,0.3c1.6-0.4,2.8-2.3,2.2-3.9c-0.9-2.9-2-5.8-4-8.2
			c-2.5-2.9-5.7-5.3-9.4-6.5c-1-0.3-2-0.4-3.1-0.6c-0.2,0-0.4,0-0.6,0C-138.3-38.5-139.2-38.3-140-38.2"/>
		<path id="Fill-10" class="st0" d="M57.2-44.2c0,2.3,0.3,4.6,0.3,7c0,2.3-0.1,4.5-0.4,6.8c-0.2,1-0.3,1.9-0.5,2.9
			c-0.2,1.3-0.2,2.5,0.5,3.7c0.6,1.1,1.6,1.9,2.7,2.2c1.2,0.3,2.5,0.2,3.5-0.5c1-0.6,1.9-1.7,2.1-2.9c0.6-3.5,1.1-7.1,1.5-10.6
			c0.3-3.3,1-6.7,0.1-10c-0.6-2.3-2.6-3.9-4.8-3.9C59.5-49.5,57.2-47.1,57.2-44.2"/>
		<path id="Fill-12" class="st0" d="M34.7-49.2c-0.9,0.9-1.2,1.9-1.3,3.2c-0.1,1.9-0.1,3.9-0.1,5.8c0,1.8-0.2,3.5-0.4,5.3
			c-0.5,2.5-1.2,4.9-2.2,7.3c-0.4,1-0.1,2.3,0.4,3.1c0.5,0.9,1.4,1.6,2.5,1.9c1.1,0.3,2.2,0.1,3.2-0.4c1-0.6,1.5-1.4,1.9-2.4
			c0.8-2,1.5-4,2.1-6.1c0.5-1.8,0.7-3.6,1-5.5c0.4-2.9,0.9-6,0.8-9c-0.1-2.4-2-4.5-4.5-4.5C36.7-50.5,35.6-50,34.7-49.2"/>
		<path id="Fill-14" class="st0" d="M17.9,8.5c-0.3,0.7-0.4,1.4-0.4,2.1c0,0.2,0,0.5,0,0.7c0,1,0.3,2,0.8,2.9c0.8,1.8,2.2,2.9,3.8,4
			c0.8,0.6,1.8,1,2.7,1.4c2.3,1.1,4.6,2,7.1,2.6c1.6,0.4,3.4,0.6,5,0.8c1,0.1,2,0.2,3.1,0.2c5,0.3,9.9,0.6,14.9-0.2
			c1.6-0.2,3.1-0.7,4.6-1.3c1.8-0.7,3.2-1.8,4.7-3c1.3-1.1,2.3-2.6,3.2-3.9c0.9-1.4,1.5-3,2.1-4.6c0.8-2.1-0.9-4.5-3-5.1
			C65.2,4.8,64,5,63,5.5c-1,0.6-1.6,1.4-2,2.5c-0.1,0.3-0.2,0.6-0.3,0.9c-0.4,0.9-0.9,1.7-1.5,2.5c-0.5,0.5-0.9,1-1.5,1.5
			c-0.5,0.3-1,0.6-1.5,0.9c-1,0.3-2,0.6-3,0.7c-3.2,0.3-6.4,0-9.6-0.3c-3.3-0.4-6.5-0.9-9.6-2.1c-1.6-0.8-3.1-1.7-4.5-2.7
			C29.2,9.2,29,9,28.8,8.8c-0.5-2-1.9-3.6-4-4.1c-0.5-0.1-1-0.2-1.5-0.2C20.9,4.5,18.7,6.1,17.9,8.5"/>
		<path id="Fill-16" class="st0" d="M242.8-166.4c-2.8,0.7-5.2,2.4-7.5,4.1c-1.1,0.8-2.1,1.6-3.2,2.3c-1,0.7-1.9,1.5-2.8,2.3
			c-1.6,1.4-3.1,2.7-4.6,4.1c-2.6,2.5-5.1,5.1-7.9,7.3c-0.8,0.6-1.5,1.2-2.3,1.7c-0.9,0.7-1.6,1.4-2,2.6c-0.3,1.1-0.1,2.3,0.4,3.3
			c0.6,1,1.5,1.7,2.5,2c1,0.3,2.4,0.2,3.3-0.4c2.4-1.8,4.8-3.6,7.1-5.7c1-0.9,2-1.9,3-2.8c1.6-1.5,3.1-3,4.7-4.5
			c1.7-1.5,3.3-2.9,5-4.3c1.7-1.4,3.4-2.7,5.1-4.1c0.6-0.4,1.2-0.8,1.9-1.2c1.4-0.8,2.1-2.6,1.7-4.2c-0.5-1.6-2-2.7-3.6-2.7
			C243.5-166.5,243.2-166.5,242.8-166.4"/>
		<path id="Fill-18" class="st0" d="M-34-237.4c-1.8,0.5-2.9,2.4-2.4,4.1c0.6,2.1,1.1,4.2,1.7,6.3c0.7,2.4,1.4,4.7,2.2,7.1
			c0.6,1.8,1.1,3.7,1.6,5.6c0.3,1.2,0.6,2.4,0.9,3.6c0.4,1.4,0.6,2.9,0.8,4.3c0.2,0.9,1,1.8,1.8,2.3c0.9,0.5,2,0.7,3,0.4
			c1-0.3,1.8-0.9,2.3-1.7c0.6-0.9,0.6-1.9,0.4-2.9c-0.8-4.6-1.9-9.1-3.3-13.6c-1.4-4.8-2.8-9.5-5.2-14c-0.6-1.1-1.8-1.7-3-1.7
			C-33.4-237.5-33.7-237.5-34-237.4"/>
		<path id="Fill-20" class="st0" d="M-144.2-191.4c-0.8,0.2-1.4,0.7-1.8,1.3c-0.4,0.6-0.5,1.4-0.3,2.1c0.2,0.7,0.7,1.2,1.4,1.6
			c2.1,1.4,4.2,2.6,6.4,3.9c1.9,1.1,3.8,2.3,5.6,3.5c1.2,0.9,2.3,1.7,3.5,2.6c1.1,0.8,2.1,1.7,3.1,2.5c2.5,2.1,4.9,4.3,7.2,6.5
			c1.2,1.2,3.5,1.1,4.7,0c1.3-1.2,1.2-3,0-4.2c-2.1-2-4.1-4-6.3-5.8c-1.2-1-2.4-2-3.6-3c-1-0.9-2.2-1.7-3.3-2.5
			c-2.2-1.7-4.6-3.2-7-4.7c-2.3-1.4-4.8-2.5-7.2-3.5c-0.5-0.2-1-0.4-1.6-0.4C-143.7-191.5-144-191.5-144.2-191.4"/>
		<path id="Fill-22" class="st0" d="M-183.4-99.6c-0.3,1-0.1,2.1,0.4,3c0.6,1,1.4,1.4,2.4,1.8c2.8,1.1,5.7,1.8,8.6,2.4
			c2.3,0.5,4.5,0.9,6.8,1.3c2.2,0.3,4.5,0.6,6.7,0.6c1.2,0,2.4-0.2,3.6-0.4c0.9-0.1,1.8-0.3,2.7-0.5c2.6-0.6,4.1-3.5,3.4-5.9
			c-0.7-2.6-3.4-3.9-6-3.4c-0.6,0.1-1.2,0.2-1.8,0.3c-2.2,0.2-4.3,0.1-6.5-0.2c-2.7-0.4-5.3-0.9-8-1.3c-2.8-0.4-5.6-0.7-8.4-0.8
			c0,0-0.1,0-0.1,0C-181.3-102.5-182.9-101.2-183.4-99.6"/>
		<path id="Fill-24" class="st0" d="M150-206.2c-1.5,1.8-2.7,3.7-3.9,5.6c-1.1,1.8-2.2,3.7-3.2,5.5c-2.4,4.4-4.8,8.6-7.6,12.7
			c-1.6,2.4-0.5,5.8,1.9,7.1c1.2,0.7,2.7,0.9,4.1,0.5c1.4-0.4,2.4-1.2,3.2-2.4c2.7-4,5.1-8.2,7.4-12.4c1-1.9,2-3.8,2.9-5.7
			c1.1-2.2,2.2-4.4,2.5-6.9c0.2-0.8,0.2-1.5,0-2.3c-0.3-1.1-1-2-2-2.6c-0.7-0.4-1.4-0.6-2.2-0.6C152-207.5,150.7-207.1,150-206.2"/>
		<path id="Fill-26" class="st0" d="M60.5-228.9c-1.2,2.1-1.4,4.5-1.7,6.8c-0.2,1.8-0.4,3.6-0.5,5.4c-0.3,3.5-0.6,7-0.9,10.6
			c-0.2,1.7-0.5,3.4-0.8,5.1c-0.3,1.6-0.3,3.1,0.6,4.6c0.8,1.3,2.1,2.3,3.5,2.7c1.5,0.4,3.2,0.2,4.5-0.6c1.2-0.7,2.5-2.1,2.7-3.6
			c0.9-5.3,1.5-10.6,1.9-15.9c0.2-2.3,0.3-4.5,0.5-6.8c0.1-1.1,0.1-2.2,0.1-3.3c0-0.5,0-1-0.1-1.5c-0.2-1.5-0.4-2.3-1-3.6
			c-0.7-1.6-2.8-2.6-4.4-2.6C63.1-231.5,61.4-230.5,60.5-228.9"/>
	</g>
</g>
</svg>
